<?xml version="1.0" encoding="UTF-8"?>
<svg version="1.1" xmlns="http://www.w3.org/2000/svg" width="1024" height="1024">
<path d="M0 0 C337.92 0 675.84 0 1024 0 C1024 337.92 1024 675.84 1024 1024 C686.08 1024 348.16 1024 0 1024 C0 686.08 0 348.16 0 0 Z " fill="#01213A" transform="translate(0,0)"/>
<path d="M0 0 C337.92 0 675.84 0 1024 0 C1024 337.92 1024 675.84 1024 1024 C686.08 1024 348.16 1024 0 1024 C0 686.08 0 348.16 0 0 Z M627 110 C626.67 110.33 626.34 110.66 626 111 C624.5676952 111.09574054 623.13067627 111.12188187 621.69517612 111.12025452 C620.29239189 111.12231604 620.29239189 111.12231604 618.86126858 111.12441921 C617.82130181 111.12082425 616.78133504 111.11722929 615.70985413 111.11352539 C614.61373336 111.11367425 613.51761259 111.11382311 612.38827604 111.11397648 C608.6807881 111.11327702 604.97334856 111.10541076 601.26586914 111.09765625 C598.61734942 111.0957381 595.96883243 111.09422181 593.3203125 111.0932312 C587.58555041 111.09033373 581.85080107 111.08387239 576.116045 111.07516479 C567.74391368 111.06255517 559.37178705 111.05651837 550.99964779 111.05223143 C537.31087805 111.0451418 523.62211412 111.0343434 509.93334961 111.02050781 C508.70277019 111.01926609 508.70277019 111.01926609 507.44733059 111.01799929 C500.0179976 111.01046738 492.58866488 111.00268997 485.15933228 110.99479675 C461.32627666 110.96948304 437.49322394 110.94735232 413.66015625 110.9375 C412.89290429 110.93717301 412.12565232 110.93684603 411.3351503 110.93650913 C374.66891686 110.92143985 338.00330219 110.90803604 301.3396461 111.40571976 C299.02223491 111.43714551 296.7048078 111.46711686 294.38737679 111.49703979 C290.31985552 111.55084081 286.25260821 111.61537224 282.18530273 111.68359375 C281.03302877 111.70031128 279.88075481 111.71702881 278.69356346 111.73425293 C277.16446563 111.76416321 277.16446563 111.76416321 275.60447693 111.79467773 C274.7296337 111.81022202 273.85479048 111.8257663 272.95343685 111.84178162 C270.99603571 111.78805973 270.99603571 111.78805973 270 113 C268.47825564 112.96631954 266.95730823 112.89630463 265.4375 112.8125 C258.29497353 112.74765216 251.76428432 114.51728307 244.95605469 116.44873047 C243.146273 116.95877628 241.32731285 117.43594643 239.5078125 117.91015625 C232.66513662 119.80542979 226.96674305 122.46165038 220.93359375 126.1953125 C217.1416536 128.52803733 213.22136144 130.57884776 209.27734375 132.640625 C207.13792048 133.91767354 205.73717879 135.24805765 204 137 C203.01 137.33 202.02 137.66 201 138 C199.30092299 139.63361344 197.6410122 141.30806782 196 143 C194.84443616 144.07420031 193.68118405 145.14016965 192.51171875 146.19921875 C181.84113368 155.77232808 181.84113368 155.77232808 173 167 C173 167.66 173 168.32 173 169 C172.34 169 171.68 169 171 169 C170.566875 169.928125 170.566875 169.928125 170.125 170.875 C169 173 169 173 167 175 C162.63912638 181.73571081 159.18848433 188.27593767 157 196 C157.99 195.01 158.98 194.02 160 193 C158.02 197.95 158.02 197.95 156 203 C156.33 201.02 156.66 199.04 157 197 C153.24620908 198.87689546 152.66976769 203.87336024 151.37109375 207.68359375 C149.83828166 212.39206678 148.51900532 217.1519908 147.25 221.9375 C147.03947998 222.72946777 146.82895996 223.52143555 146.61206055 224.33740234 C144.48171901 232.60588309 143.88303115 240.35966762 144 248.875 C144.02537766 250.76817371 144.04645529 252.6614117 144.0625 254.5546875 C144.07410156 255.38468262 144.08570313 256.21467773 144.09765625 257.06982422 C144 259 144 259 143 260 C142.92686433 262.53049402 142.90752473 265.03304837 142.9375 267.5625 C142.94201172 268.27341797 142.94652344 268.98433594 142.95117188 269.71679688 C142.96299136 271.47790013 142.98092737 273.23896036 143 275 C143.66 275 144.32 275 145 275 C144.85980308 277.81288705 144.71312045 280.62516885 144.5625 283.4375 C144.52318359 284.23994141 144.48386719 285.04238281 144.44335938 285.86914062 C144.11328125 291.88671875 144.11328125 291.88671875 143 293 C142.90482197 295.76938966 142.87445735 298.51377159 142.88647461 301.28344727 C142.88632858 302.15166107 142.88618256 303.01987488 142.8860321 303.91439819 C142.88673154 306.79842586 142.89452537 309.6823898 142.90234375 312.56640625 C142.90420782 314.56037867 142.90563177 316.55435155 142.90663147 318.54832458 C142.91045752 323.80745702 142.92028855 329.06656203 142.93133545 334.32568359 C142.9415477 339.68782175 142.94612869 345.04996431 142.95117188 350.41210938 C142.96191074 360.94141833 142.9789882 371.47070689 143 382 C143.33 382 143.66 382 144 382 C144.02887512 385.64581687 144.04675585 389.29160463 144.0625 392.9375 C144.07506836 394.49887695 144.07506836 394.49887695 144.08789062 396.09179688 C144.09111328 397.08115234 144.09433594 398.07050781 144.09765625 399.08984375 C144.10289307 400.00628662 144.10812988 400.92272949 144.11352539 401.86694336 C144 404 144 404 143 405 C142.92851801 406.35243917 142.91600546 407.70834367 142.9375 409.0625 C142.958125 410.361875 142.97875 411.66125 143 413 C143.33 413 143.66 413 144 413 C144.02332869 429.93262204 144.04097903 446.86523908 144.05181217 463.7978735 C144.05697519 471.65944391 144.06401801 479.52100435 144.07543945 487.38256836 C144.0853861 494.23225475 144.09185338 501.08193392 144.09408849 507.93162733 C144.09539563 511.56069396 144.09848169 515.18973994 144.10573006 518.81879997 C144.11374356 522.86350304 144.11399115 526.90816989 144.11352539 530.95288086 C144.11712067 532.16488159 144.12071594 533.37688232 144.12442017 534.62561035 C144.1230455 535.72082504 144.12167084 536.81603973 144.12025452 537.94444275 C144.12117631 538.90218566 144.1220981 539.85992857 144.12304783 540.84669399 C144 543 144 543 143 544 C142.07432122 549.69599688 141.91852175 555.12012912 142.12109375 560.875 C142.14470474 561.68493408 142.16831573 562.49486816 142.19264221 563.3293457 C142.268497 565.88644458 142.35285142 568.44317868 142.4375 571 C142.49079924 572.7460766 142.54353892 574.49217037 142.59570312 576.23828125 C142.72400456 580.49241332 142.85992323 584.74624004 143 589 C143.33 589 143.66 589 144 589 C144.02686553 590.97909398 144.04633375 592.95828971 144.0625 594.9375 C144.07410156 596.03964844 144.08570313 597.14179687 144.09765625 598.27734375 C144 601 144 601 143 602 C142.92794489 603.68608966 142.91613932 605.37500659 142.9375 607.0625 C142.94652344 607.98160156 142.95554688 608.90070313 142.96484375 609.84765625 C142.97644531 610.55792969 142.98804688 611.26820313 143 612 C143.33 612 143.66 612 144 612 C144.76370639 623.01919215 145.13379211 633.95471804 145 645 C144.34 645 143.68 645 143 645 C142.64650348 649.55970072 142.64650348 649.55970072 144 653.78125 C145.43785828 656.97149806 145.18937223 659.77389949 145.125 663.25 C145.10695312 664.51328125 145.08890625 665.7765625 145.0703125 667.078125 C145.03550781 668.52445313 145.03550781 668.52445313 145 670 C144.34 670 143.68 670 143 670 C143 671.98 143 673.96 143 676 C143.33 676 143.66 676 144 676 C144 679.96 144 683.92 144 688 C143.67 688 143.34 688 143 688 C142.79913557 691.71599191 142.8480563 692.77208445 145 696 C144.34 696.33 143.68 696.66 143 697 C143.185625 698.134375 143.37125 699.26875 143.5625 700.4375 C143.706875 701.613125 143.85125 702.78875 144 704 C143.67 704.33 143.34 704.66 143 705 C142.92741054 707.18639453 142.91626217 709.37500389 142.9375 711.5625 C142.94652344 712.76003906 142.95554688 713.95757813 142.96484375 715.19140625 C142.97644531 716.11824219 142.98804688 717.04507813 143 718 C143.66 718.33 144.32 718.66 145 719 C144.67 719.66 144.34 720.32 144 721 C142.95775683 724.29436302 142.89651009 727.30684772 142.9375 730.75 C142.94652344 731.73484375 142.95554688 732.7196875 142.96484375 733.734375 C142.97644531 734.48203125 142.98804688 735.2296875 143 736 C143.33 736 143.66 736 144 736 C144.06058594 736.67546875 144.12117187 737.3509375 144.18359375 738.046875 C144.26738281 738.93890625 144.35117188 739.8309375 144.4375 740.75 C144.51871094 741.63171875 144.59992188 742.5134375 144.68359375 743.421875 C144.93262887 745.92943337 144.93262887 745.92943337 145.53515625 748.03515625 C146.07556221 750.31939319 146.06196518 752.34444146 146 754.6875 C145.96236969 756.12450738 145.95337141 757.56325645 146 759 C146.33 759.33 146.66 759.66 147 760 C146.80369624 761.60851885 146.56787653 763.21229661 146.3125 764.8125 C145.73765396 769.02986116 145.73765396 769.02986116 147.9375 772.625 C148.9584375 773.305625 148.9584375 773.305625 150 774 C149.34 774.66 148.68 775.32 148 776 C148 776.99 148 777.98 148 779 C148.66 779.33 149.32 779.66 150 780 C149.938125 780.928125 149.87625 781.85625 149.8125 782.8125 C149.67768494 785.93202982 149.67768494 785.93202982 151.3125 787.5625 C152.1478125 788.2740625 152.1478125 788.2740625 153 789 C154.03357147 790.64605826 155.04060332 792.30963442 156 794 C155.01 793.67 154.02 793.34 153 793 C153.69941596 796.14737182 154.76078698 799.02588876 156 802 C156.66 801.67 157.32 801.34 158 801 C159.61064629 804.65079826 160.44894091 808.0507432 161 812 C161.99 812.33 162.98 812.66 164 813 C163.67 813.66 163.34 814.32 163 815 C164.24374761 818.16314026 164.24374761 818.16314026 167 820 C167.268125 820.7425 167.53625 821.485 167.8125 822.25 C169.27139169 825.62848603 171.38174525 827.44720162 174 830 C175.3125 832.3125 175.3125 832.3125 176 834 C176.99 834 177.98 834 179 834 C179.226875 834.886875 179.45375 835.77375 179.6875 836.6875 C181.20455384 840.51625492 182.96779818 842.24986347 186 845 C186.825 845.86625 187.65 846.7325 188.5 847.625 C190.87837519 849.88445643 193.14553833 851.41418796 196 853 C196.33 853.33 196.66 853.66 197 854 C199.67642489 856.18490007 199.67642489 856.18490007 202 856 C202.061875 856.5775 202.12375 857.155 202.1875 857.75 C203.78956607 862.18649066 207.98206921 864.023264 212 866 C213.92017797 867.03517975 215.8366671 868.07722246 217.75 869.125 C218.73484375 869.66382813 219.7196875 870.20265625 220.734375 870.7578125 C221.85585937 871.37269531 221.85585937 871.37269531 223 872 C223 871.34 223 870.68 223 870 C223.66 870 224.32 870 225 870 C225 870.66 225 871.32 225 872 C225.99 872 226.98 872 228 872 C228.33 872.66 228.66 873.32 229 874 C229.66 874.33 230.32 874.66 231 875 C231.6496875 875.7115625 231.6496875 875.7115625 232.3125 876.4375 C235.55728166 879.44192747 238.43909545 879.98160969 242.8125 880.125 C244.3903125 880.063125 244.3903125 880.063125 246 880 C246 880.66 246 881.32 246 882 C246.9075 881.7525 247.815 881.505 248.75 881.25 C249.8225 881.1675 250.895 881.085 252 881 C254.1875 882.9375 254.1875 882.9375 256 885 C258.63664741 885 260.50746285 884.74776114 263 884 C263.33 883.67 263.66 883.34 264 883 C264.433125 883.495 264.86625 883.99 265.3125 884.5 C266.99740483 886.33218192 266.99740483 886.33218192 270 886 C270 885.34 270 884.68 270 884 C272.31 884.66 274.62 885.32 277 886 C277.33 885.67 277.66 885.34 278 885 C278.33 885.66 278.66 886.32 279 887 C297.09796067 888.06203602 314.90374647 887.86005473 333 887 C333.33 887.99 333.66 888.98 334 890 C334 889.01 334 888.02 334 887 C334.66807678 887.02963837 335.33615356 887.05927673 336.0244751 887.08981323 C360.64596825 888.13372116 385.25851161 888.15542208 409.8984375 888.13037109 C415.68052078 888.12457805 421.4625586 888.12802941 427.24464035 888.13394356 C431.73118438 888.1375437 436.21771744 888.13641478 440.70426178 888.13381577 C442.8397548 888.13314991 444.97524881 888.13396297 447.11074066 888.13629532 C450.06441445 888.13882307 453.01801165 888.13498391 455.97167969 888.12939453 C456.84726532 888.13141876 457.72285095 888.13344299 458.62496948 888.13552856 C461.99910425 888.12364646 464.77663769 888.0744541 468 887 C468.33 887.66 468.66 888.32 469 889 C469.33 888.67 469.66 888.34 470 888 C472.86815255 887.91003202 475.71207638 887.88510494 478.58032227 887.90234375 C479.48135681 887.90380402 480.38239136 887.90526428 481.31072998 887.9067688 C483.27725835 887.91058692 485.24378323 887.91671605 487.21029854 887.92483521 C490.33583892 887.93757923 493.46133687 887.94411136 496.5868988 887.94897461 C504.36504276 887.96236578 512.14314748 887.98634763 519.92126465 888.01037598 C526.46871156 888.03024792 533.01614247 888.04584205 539.56361198 888.05593872 C542.61865464 888.06234739 545.67363135 888.07486507 548.72865295 888.08764648 C559.53163374 888.11553238 570.22799998 887.85896618 581 887 C581.33 887.66 581.66 888.32 582 889 C582 888.34 582 887.68 582 887 C583.20885864 887.04543945 583.20885864 887.04543945 584.44213867 887.09179688 C625.65052656 888.59691465 666.78002855 887.83370828 708 887 C708.33 887.66 708.66 888.32 709 889 C709 888.34 709 887.68 709 887 C709.90766113 887.01047363 710.81532227 887.02094727 711.75048828 887.03173828 C715.13869804 887.06595387 718.52672244 887.0909637 721.91503906 887.10986328 C723.37763376 887.11988105 724.84020863 887.13349912 726.30273438 887.15087891 C728.41281039 887.17531439 730.52262012 887.18652537 732.6328125 887.1953125 C734.53377686 887.21102295 734.53377686 887.21102295 736.47314453 887.22705078 C739.98987733 887.00065167 742.72916487 886.27223601 746 885 C746.66 885.66 747.32 886.32 748 887 C749.0725 886.484375 750.145 885.96875 751.25 885.4375 C754.70949638 883.92310198 754.70949638 883.92310198 757.125 884.5625 C757.74375 884.706875 758.3625 884.85125 759 885 C761.75256794 883.14835964 761.75256794 883.14835964 764 881 C764.33 881.66 764.66 882.32 765 883 C770.22118676 882.41160201 774.81249802 881.20372065 779.75 879.4375 C786.61260331 877 786.61260331 877 790 877 C790 876.34 790 875.68 790 875 C790.825 874.7525 791.65 874.505 792.5 874.25 C795.84942092 873.05377824 798.88307981 871.6391824 802.03515625 870.01171875 C803.81667482 869.09439607 805.6259031 868.23139126 807.4375 867.375 C810.11163225 866.25730483 810.11163225 866.25730483 811 864 C812.64545437 862.9654674 814.31639831 861.97121734 816 861 C817.78320255 859.83115629 819.55423892 858.64353686 821.3125 857.4375 C822.19550781 856.83808594 823.07851563 856.23867188 823.98828125 855.62109375 C824.65214844 855.08613281 825.31601562 854.55117188 826 854 C826 853.34 826 852.68 826 852 C826.598125 851.7525 827.19625 851.505 827.8125 851.25 C830.31626919 849.81927475 831.48072388 848.4308418 833 846 C833 845.34 833 844.68 833 844 C834.32 843.67 835.64 843.34 837 843 C837 842.34 837 841.68 837 841 C837.639375 840.731875 838.27875 840.46375 838.9375 840.1875 C841.33131686 839.11332248 841.33131686 839.11332248 842 836 C842.99 835.67 843.98 835.34 845 835 C846.58998158 833.07013106 848.05684573 831.15875206 849.5 829.125 C853.73036649 823.24716405 853.73036649 823.24716405 855.78125 821.3671875 C857.4436148 819.80761252 857.4436148 819.80761252 857 816 C857.99 815.67 858.98 815.34 860 815 C860 813.68 860 812.36 860 811 C860.66 811 861.32 811 862 811 C862.66 809.02 863.32 807.04 864 805 C863.67 804.67 863.34 804.34 863 804 C863.99 803.34 864.98 802.68 866 802 C867.46471789 799.01022637 867.46471789 799.01022637 868.6875 795.5625 C869.12449219 794.40878906 869.56148437 793.25507812 870.01171875 792.06640625 C871.1533774 789.06106079 871.1533774 789.06106079 871 786 C870.34 786 869.68 786 869 786 C869 785.01 869 784.02 869 783 C869.66 783 870.32 783 871 783 C871.33 783.66 871.66 784.32 872 785 C872.335939 783.5422647 872.66866624 782.08378894 873 780.625 C873.185625 779.81289063 873.37125 779.00078125 873.5625 778.1640625 C874.06605239 776.04125049 874.06605239 776.04125049 874 774 C874.64097297 771.99161804 875.30899447 769.99172182 876 768 C877.15811388 765.05270463 877.15811388 765.05270463 877 762 C877 760.33333333 877 758.66666667 877 757 C876.67 757.66 876.34 758.32 876 759 C875.34 759 874.68 759 874 759 C874.33 758.4225 874.66 757.845 875 757.25 C876.27075898 754.80116138 876.27075898 754.80116138 876 751 C876.66 751 877.32 751 878 751 C878.87822419 738.37552727 879.11027749 725.77514987 879.125 713.125 C879.12749756 712.38309418 879.12999512 711.64118835 879.13256836 710.87680054 C879.15927138 701.19922475 878.84049808 691.64753948 878 682 C878.66 681.67 879.32 681.34 880 681 C879.34 681 878.68 681 878 681 C878.08378906 680.02289062 878.16757812 679.04578125 878.25390625 678.0390625 C879.19439485 665.26559954 878.83995443 652.6136067 878.31860352 639.83251953 C878.29141739 639.11248245 878.26423126 638.39244537 878.23622131 637.65058899 C878.1610229 635.67610345 878.07785165 633.70192616 877.99414062 631.7277832 C878 628 878 628 878.49327087 624.38626671 C879.114059 619.61284078 879.13286721 614.89973171 879.11352539 610.09194946 C879.11367425 609.12280684 879.11382311 608.15366421 879.11397648 607.15515363 C879.11328463 603.92323747 879.10545455 600.69137888 879.09765625 597.45947266 C879.09573624 595.13644442 879.09427283 592.81341576 879.0932312 590.49038696 C879.09007456 585.4966009 879.08381273 580.50283182 879.07516479 575.50905228 C879.06163868 567.61910377 879.05574787 559.72916089 879.05102539 551.83920288 C879.0438438 540.78488776 879.03358768 529.73057923 879.02050781 518.67626953 C879.01968 517.97553308 879.01885219 517.27479663 879.01799929 516.55282573 C879.01209676 511.5768837 879.00606124 506.60094184 879 501.625 C878.99306734 495.93050142 878.98620194 490.23600276 878.97949219 484.54150391 C878.97825 483.48895636 878.97825 483.48895636 878.97698271 482.41514523 C878.96331192 470.728296 878.95358695 459.04144681 878.94658184 447.35459173 C878.94158668 439.50405069 878.93170884 431.65353522 878.91815186 423.8030045 C878.91071898 418.93220644 878.90738207 414.06141195 878.9051857 409.19060898 C878.90330589 406.92418456 878.89968963 404.65776084 878.89425278 402.39134216 C878.88708977 399.30959424 878.88599664 396.22790345 878.88647461 393.14614868 C878.88287965 392.23916752 878.87928469 391.33218637 878.87558079 390.39772093 C878.88590692 384.22818616 878.88590692 384.22818616 880 382 C879.34 382 878.68 382 878 382 C878.04543945 380.36816772 878.04543945 380.36816772 878.09179688 378.70336914 C878.82911047 351.79680328 879.23978154 324.91617924 879 298 C878.99139954 296.93789307 878.98279907 295.87578613 878.97393799 294.78149414 C878.91646438 287.88316481 878.83809112 280.98548652 878.73553467 274.087677 C878.70368373 271.83307961 878.67649212 269.57841126 878.65411377 267.32369995 C878.62102713 264.17762901 878.56891034 261.03243174 878.51171875 257.88671875 C878.50211876 256.47250641 878.50211876 256.47250641 878.49232483 255.02972412 C878.4141749 249.96662125 878.4141749 249.96662125 876.46801758 245.38208008 C875.98357178 244.92599365 875.49912598 244.46990723 875 244 C875.33 243.67 875.66 243.34 876 243 C876.33 243 876.66 243 877 243 C876.85866501 241.22880197 876.71176792 239.45804713 876.5625 237.6875 C876.48128906 236.70136719 876.40007813 235.71523437 876.31640625 234.69921875 C876.08187441 231.90624401 876.08187441 231.90624401 875 229 C875 228.01 875 227.02 875 226 C874.34 226 873.68 226 873 226 C873.20625 225.278125 873.4125 224.55625 873.625 223.8125 C874.05952211 220.55358415 873.41680669 218.91695496 872 216 C871.01 216 870.02 216 869 216 C869.66 215.34 870.32 214.68 871 214 C870.87480105 211.38087164 870.87480105 211.38087164 870.25 208.5 C870.06953125 207.5203125 869.8890625 206.540625 869.703125 205.53125 C869.18343721 202.85539904 869.18343721 202.85539904 867 201 C867 199.68 867 198.36 867 197 C866.34 197 865.68 197 865 197 C864.86271484 195.95779297 864.86271484 195.95779297 864.72265625 194.89453125 C863.84484502 191.3785414 862.30948033 188.78477654 860.4375 185.6875 C859.79683594 184.61886719 859.15617188 183.55023438 858.49609375 182.44921875 C858.00238281 181.64097656 857.50867188 180.83273438 857 180 C856.67 180.66 856.34 181.32 856 182 C856.33 182.99 856.66 183.98 857 185 C854.525 180.545 854.525 180.545 852 176 C852.66 176.33 853.32 176.66 854 177 C852.66586802 173.20543365 850.98796076 170.4738897 848.4375 167.375 C846.32513314 164.80151356 845.06114974 163.18344921 844 160 C842.510147 158.48968985 842.510147 158.48968985 840.625 157 C837.05531947 153.99227275 833.80783409 150.79238123 830.5625 147.4375 C826.12589073 142.95145775 821.6269179 138.93094405 816 136 C815.34 136 814.68 136 814 136 C814 135.34 814 134.68 814 134 C812.84371094 133.38511719 812.84371094 133.38511719 811.6640625 132.7578125 C810.66117188 132.21898437 809.65828125 131.68015625 808.625 131.125 C807.62726562 130.59132812 806.62953125 130.05765625 805.6015625 129.5078125 C803 128 803 128 801 126 C798.07658794 124.6507329 796.24792684 124 793 124 C792.67 123.34 792.34 122.68 792 122 C789.15056367 120.86324075 786.35598561 119.86406146 783.4375 118.9375 C782.58430176 118.66655518 781.73110352 118.39561035 780.85205078 118.11645508 C772.81226193 115.70601142 765.36043544 115.18703435 757 115 C753.98706497 114.73253318 751.00169051 114.37521131 748 114 C748 113.34 748 112.68 748 112 C730.48530004 110.93331754 730.48530004 110.93331754 713 112 C712.67 111.34 712.34 110.68 712 110 C712 110.66 712 111.32 712 112 C710.51137451 111.75660889 710.51137451 111.75660889 708.99267578 111.50830078 C702.07055169 110.6498264 695.08048927 110.85644063 688.1171875 110.8671875 C686.57357773 110.8665128 685.02996806 110.86554139 683.48635864 110.86428833 C680.26384461 110.86282007 677.04135843 110.86493838 673.81884766 110.86962891 C669.69883961 110.87533529 665.5788966 110.87203591 661.45889091 110.86605644 C658.27608758 110.86243545 655.09329956 110.86359632 651.91049576 110.86618423 C650.39152137 110.86684875 648.87254558 110.86604179 647.35357285 110.86370468 C645.22900478 110.86115178 643.10454082 110.86505532 640.97998047 110.87060547 C639.7738913 110.87140106 638.56780212 110.87219666 637.32516479 110.87301636 C634.13126207 110.99498728 631.13565534 111.3983546 628 112 C627.67 111.34 627.34 110.68 627 110 Z " fill="#041E3B" transform="translate(0,0)"/>
<path d="M0 0 C14.5792272 11.45939258 24.64378107 25.59845545 28.63671875 43.921875 C29.07665173 47.64947916 29.02238379 51.24626229 29 55 C30.64029175 54.9685791 30.64029175 54.9685791 32.3137207 54.93652344 C36.4193787 54.86343869 40.52498074 54.81795466 44.63110352 54.78027344 C46.39910593 54.76031238 48.16704366 54.73313348 49.93481445 54.69824219 C63.50464941 54.4373576 74.71956683 54.8209679 85.05078125 64.70703125 C88.74986001 69.05845256 92 74.18092239 92 80 C2.24 80 -87.52 80 -180 80 C-178.83793214 71.86552496 -176.81804123 67.3591114 -170.66015625 61.94140625 C-162.23034615 55.69373497 -154.60469228 54.69271148 -144.375 54.8046875 C-142.89374634 54.80893234 -142.89374634 54.80893234 -141.38256836 54.81326294 C-138.25491785 54.8243818 -135.12756272 54.84947084 -132 54.875 C-129.86849374 54.88504052 -127.73698296 54.89416449 -125.60546875 54.90234375 C-120.4035465 54.92429388 -115.20179436 54.95768793 -110 55 C-109.88172852 54.06696045 -109.76345703 53.1339209 -109.64160156 52.17260742 C-109.4762793 50.93357666 -109.31095703 49.6945459 -109.140625 48.41796875 C-108.98110352 47.1961792 -108.82158203 45.97438965 -108.65722656 44.71557617 C-107.60713467 38.77896826 -105.47933749 33.47116374 -103 28 C-102.57976562 27.06414063 -102.15953125 26.12828125 -101.7265625 25.1640625 C-93.20944737 7.98213661 -77.8431999 -3.42854395 -60.2421875 -10.03515625 C-39.82792154 -16.2873887 -17.28093518 -11.95070793 0 0 Z " fill="#00D7DA" transform="translate(571,499)"/>
<path d="M0 0 C11.85526641 8.89607354 20.22829742 21.9931743 23.49609375 36.46484375 C26.0267282 54.21851952 23.44627649 70.77650669 13.11328125 85.73046875 C3.0634305 98.78145372 -10.39977885 107.49436458 -26.72265625 110.6015625 C-43.49218739 112.64028977 -58.90890493 109.93713829 -72.5625 99.75 C-86.72001542 88.1393392 -95.85747387 74.50904519 -98 56 C-99.24305973 38.38406789 -95.16313355 22.92527462 -83.5625 9.09375 C-77.17314505 2.33292092 -70.2514352 -2.7285506 -62 -7 C-60.70642578 -7.68255859 -60.70642578 -7.68255859 -59.38671875 -8.37890625 C-40.24229993 -16.51882951 -16.47489006 -11.29904802 0 0 Z " fill="#02EDE8" transform="translate(618,172)"/>
<path d="M0 0 C13.29285925 9.27408785 23.09029378 21.46228502 26.234375 37.69921875 C28.60091345 54.28538907 25.36920704 71.05640558 15.6875 84.875 C5.66591866 97.12523392 -7.35918372 105.81966477 -23.3125 107.875 C-40.33241804 108.75738857 -56.03720937 105.75803061 -69.625 94.6875 C-82.15995252 82.6367302 -89.00008911 68.06236783 -89.64697266 50.77685547 C-89.9427613 34.61539164 -84.33524174 20.96012574 -73.25 9.125 C-53.18877925 -9.8933666 -24.13833537 -14.36805677 0 0 Z " fill="#01EBE7" transform="translate(411.3125,297.125)"/>
<path d="M0 0 C67.64516129 0 67.64516129 0 83.42578125 14.1796875 C94.49760763 25.53063555 100.20607394 40.36843845 100.3125 56.125 C100.06940459 73.73293618 94.0504021 88.1390816 82.0625 101.09375 C60.46482956 121.61153692 26.45247494 115 0 115 C0 77.05 0 39.1 0 0 Z " fill="#01DDDE" transform="translate(541,620)"/>
<path d="M0 0 C14.5096875 -0.12375 14.5096875 -0.12375 29.3125 -0.25 C32.34477783 -0.28641602 35.37705566 -0.32283203 38.5012207 -0.36035156 C40.93440037 -0.37204612 43.36758794 -0.38223612 45.80078125 -0.390625 C47.04001343 -0.41108887 48.27924561 -0.43155273 49.55603027 -0.45263672 C59.89132357 -0.45674251 70.34762146 1.49513719 78 9 C85.98494692 18.20557574 89.810129 28.57042369 89.38671875 40.76171875 C88.04960091 51.95839242 83.41339262 61.67422045 74.6484375 68.7734375 C70.31210191 72 70.31210191 72 67 72 C72.67117414 82.47216813 78.79818477 92.56869746 85.30126953 102.54736328 C85.88118652 103.44310059 86.46110352 104.33883789 87.05859375 105.26171875 C87.57736084 106.05537842 88.09612793 106.84903809 88.63061523 107.66674805 C90 110 90 110 92 115 C82.76 115 73.52 115 64 115 C62.90300781 113.01097656 61.80601562 111.02195312 60.67578125 108.97265625 C59.59679379 107.01650213 58.51775941 105.0603739 57.4387207 103.10424805 C56.69680981 101.75922294 55.95494664 100.41417151 55.21313477 99.0690918 C54.85469482 98.4191626 54.49625488 97.7692334 54.12695312 97.09960938 C53.7733371 96.45583344 53.41972107 95.8120575 53.0553894 95.14877319 C52.34433164 93.86532277 51.62402694 92.58695173 50.89456177 91.31387329 C49.35501936 88.6079637 48.01517066 86.0457111 47.03271484 83.08544922 C46.18906819 80.19204923 46.18906819 80.19204923 43 77 C36.73 76.67 30.46 76.34 24 76 C24 88.87 24 101.74 24 115 C16.08 115 8.16 115 0 115 C0 77.05 0 39.1 0 0 Z " fill="#01DEDE" transform="translate(430,620)"/>
<path d="M0 0 C3.86786546 2.81299306 6.83069326 5.98526547 9.9140625 9.59375 C13.2419935 13.4327116 16.70882597 17.14367046 20.15625 20.875 C22.27065481 23.17841865 24.33272251 25.52201563 26.3828125 27.8828125 C29.94973577 31.97456917 33.64493964 35.93223532 37.375 39.875 C42.25859366 45.0600796 47.09478365 50.27715029 51.83984375 55.58984375 C57.65387107 62.07674222 63.57889266 68.46494356 69.48925781 74.86401367 C70.49299902 75.95096742 71.49625775 77.03836692 72.49902344 78.1262207 C75.02281737 80.86362342 77.55349111 83.59401094 80.09765625 86.3125 C81.08597026 87.37496953 82.07425274 88.43746838 83.0625 89.5 C83.94035156 90.4384375 84.81820312 91.376875 85.72265625 92.34375 C87.82104827 94.79127414 89.44444603 97.18470231 91 100 C89.82566406 100.02578125 88.65132812 100.0515625 87.44140625 100.078125 C59.89165257 100.93445957 38.14465254 109.66157005 19 130 C18.00366073 131.00364738 17.00418696 132.00420457 16 133 C15.34 133.66 14.68 134.32 14 135 C8.60126381 127.69363339 3.43885494 120.27042368 -1.5625 112.6875 C-6.9460647 104.56649728 -12.37331109 96.47897113 -17.875 88.4375 C-22.84310853 81.17276456 -27.77993974 73.89043945 -32.63671875 66.55078125 C-34.34629035 63.97009037 -36.08295072 61.40954066 -37.83203125 58.85546875 C-38.53235474 57.82570923 -38.53235474 57.82570923 -39.24682617 56.77514648 C-40.14381 55.45708079 -41.0460586 54.14257753 -41.9543457 52.83227539 C-45 48.33724615 -45 48.33724615 -45 45 C-44.26136719 44.72027344 -43.52273438 44.44054687 -42.76171875 44.15234375 C-22.95691371 36.32604849 -10.70632783 23.82229257 -1.9375 4.625 C-1.27987457 3.08832645 -0.62893619 1.54863684 0 0 Z " fill="#01E6E4" transform="translate(449,370)"/>
<path d="M0 0 C7.92 0 15.84 0 24 0 C24.0093457 2.32095703 24.01869141 4.64191406 24.02832031 7.03320312 C24.06215996 14.72073345 24.11774765 22.4079973 24.18390274 30.09531403 C24.22333142 34.75398624 24.25554243 39.41247074 24.27099609 44.07128906 C24.28619315 48.57137009 24.32069245 53.07093489 24.36830902 57.57078552 C24.38309147 59.2834371 24.39103921 60.9961624 24.39188385 62.70887756 C24.2637628 76.33417979 24.2637628 76.33417979 30.74609375 88.0234375 C31.58333984 88.69246094 31.58333984 88.69246094 32.4375 89.375 C32.99308594 89.83648438 33.54867187 90.29796875 34.12109375 90.7734375 C40.82567254 95.15023114 48.30766579 94.65397103 56 94 C61.93960133 92.41850252 65.57259331 89.09214708 69 84 C71.49682714 78.77018343 72.44457792 73.91447784 72.43237305 68.11523438 C72.4425647 67.3727948 72.45275635 66.63035522 72.46325684 65.86541748 C72.4931543 63.44144925 72.50261661 61.01787763 72.51171875 58.59375 C72.52858276 56.901232 72.54673531 55.2087264 72.56611633 53.51623535 C72.61343565 49.08418654 72.64336147 44.65218799 72.66955566 40.2199707 C72.69945282 35.68821286 72.74595151 31.15662791 72.79101562 26.625 C72.87684309 17.750071 72.94274295 8.87515936 73 0 C80.92 0 88.84 0 97 0 C97.06806278 9.70191268 97.12298057 19.40366405 97.15543652 29.10576248 C97.17102202 33.61194047 97.19212851 38.11794515 97.22631836 42.62402344 C97.25916789 46.98124622 97.27690637 51.3383034 97.28463173 55.69564056 C97.2901297 57.34923658 97.30086442 59.00282462 97.31719017 60.65634918 C97.46439743 76.19909071 95.76242576 91.4367833 84.71875 103.41015625 C74.06355972 113.26620726 61.99106693 116.19001104 47.9375 116.3125 C46.31424805 116.35600586 46.31424805 116.35600586 44.65820312 116.40039062 C31.07266792 116.50633661 20.60314599 111.38487927 10.75 102.25 C2.96999832 94.14454008 -0.33608756 83.87343012 -0.22705078 72.76977539 C-0.22748886 71.58318329 -0.22748886 71.58318329 -0.22793579 70.37261963 C-0.22655226 67.78085013 -0.21103755 65.18937498 -0.1953125 62.59765625 C-0.19157889 60.79162249 -0.18873356 58.98558669 -0.18673706 57.17955017 C-0.17912801 52.44325088 -0.15950312 47.7070757 -0.1373291 42.9708252 C-0.11681172 38.13095783 -0.10772277 33.29107027 -0.09765625 28.45117188 C-0.0762545 18.96738482 -0.04109476 9.48372219 0 0 Z " fill="#01DCDD" transform="translate(311,620)"/>
<path d="M0 0 C0.09796875 0.94359375 0.1959375 1.8871875 0.296875 2.859375 C2.60271392 22.65778505 9.98864465 37.93122107 24 52 C22.87061755 55.38814736 22.31024735 55.74794896 19.44921875 57.64453125 C18.69866211 58.14895752 17.94810547 58.65338379 17.17480469 59.1730957 C16.35399414 59.71409912 15.53318359 60.25510254 14.6875 60.8125 C12.93547846 61.98851219 11.18419895 63.16563049 9.43359375 64.34375 C8.5297998 64.94960938 7.62600586 65.55546875 6.69482422 66.1796875 C2.51049434 69.00613827 -1.62024209 71.90714268 -5.75 74.8125 C-7.41257681 75.9794283 -9.075341 77.14608967 -10.73828125 78.3125 C-11.58729004 78.90804687 -12.43629883 79.50359375 -13.31103516 80.1171875 C-20.10370232 84.87341132 -26.91507446 89.60282065 -33.7265625 94.33203125 C-36.91675807 96.54760325 -40.10054395 98.77144509 -43.2734375 101.01171875 C-43.88453369 101.44121826 -44.49562988 101.87071777 -45.12524414 102.31323242 C-46.67551674 103.40364989 -48.22267767 104.49848776 -49.76953125 105.59375 C-52 107 -52 107 -54 107 C-54.32871094 105.93523437 -54.65742188 104.87046875 -54.99609375 103.7734375 C-61.12326843 84.74590332 -71.27954538 70.35457807 -88 59 C-83.30828226 53.70389067 -77.51487939 50.16034253 -71.625 46.3125 C-70.54371826 45.59916504 -69.46243652 44.88583008 -68.34838867 44.15087891 C-66.19806775 42.7323325 -64.04632862 41.31593319 -61.89306641 39.90185547 C-58.35508716 37.57604464 -54.83189328 35.22878869 -51.3125 32.875 C-50.15247041 32.10137255 -48.99231127 31.32793931 -47.83203125 30.5546875 C-46.93218506 29.95479004 -46.93218506 29.95479004 -46.01416016 29.34277344 C-33.34277344 20.89518229 -20.67138672 12.44759115 -8 4 C-6.91589844 3.24976563 -5.83179688 2.49953125 -4.71484375 1.7265625 C-2 0 -2 0 0 0 Z " fill="#01EFE9" transform="translate(506,225)"/>
<path d="M0 0 C25.08 0 50.16 0 76 0 C76 6.93 76 13.86 76 21 C58.84 21 41.68 21 24 21 C24 29.58 24 38.16 24 47 C38.19 47 52.38 47 67 47 C67 53.93 67 60.86 67 68 C52.48 68 37.96 68 23 68 C23 83.51 23 99.02 23 115 C15.41 115 7.82 115 0 115 C0 77.05 0 39.1 0 0 Z " fill="#00DCDD" transform="translate(659,620)"/>
<path d="M0 0 C7.33006523 4.77157824 13.33834519 10.59374553 17.23828125 18.45703125 C17.83640625 19.63265625 18.43453125 20.80828125 19.05078125 22.01953125 C22.09547955 30.90865043 21.18276674 41.41202691 17.5625 49.9609375 C12.39554028 59.70042795 4.60464133 66.94284344 -5.79296875 70.76171875 C-16.93463987 73.37121541 -27.3863717 71.95062018 -37.12109375 66.01953125 C-45.71507499 60.0210477 -51.01342006 51.3745455 -53.32421875 41.20703125 C-55.03337261 30.46377842 -53.31395643 21.12000584 -46.94921875 12.14453125 C-35.86831584 -1.43582344 -16.5584187 -8.09332037 0 0 Z " fill="#003E5C" transform="translate(597.76171875,187.54296875)"/>
<path d="M0 0 C7.2829745 4.95187092 12.92017289 13.03841355 14.75 21.71484375 C15.82903802 32.5202106 13.82279452 41.81684623 7.4765625 50.6796875 C4.62940936 54.03572095 1.49337494 56.42992658 -2.25 58.71484375 C-2.89324219 59.12863281 -3.53648437 59.54242188 -4.19921875 59.96875 C-11.76871741 64.1067426 -21.75004128 64.10545831 -30 62.01953125 C-32.25283769 61.08867123 -34.20139637 60.03268296 -36.25 58.71484375 C-36.94480469 58.29074219 -37.63960938 57.86664063 -38.35546875 57.4296875 C-46.24029049 52.11889763 -51.41278629 44.03870332 -53.25 34.71484375 C-54.20946807 25.63987488 -52.89088689 17.07710174 -47.5625 9.52734375 C-34.92303262 -5.84498144 -17.79982082 -10.16691154 0 0 Z " fill="#00425E" transform="translate(399.25,318.28515625)"/>
<path d="M0 0 C31.12373096 0 31.12373096 0 41.21484375 8.1640625 C49.64219554 16.83114202 51.45684554 26.74136577 51.43164062 38.31567383 C51.18680792 49.15445724 47.71907003 57.24098282 40.18359375 65.08984375 C28.077817 75.67969139 16.74445135 73 0 73 C0 48.91 0 24.82 0 0 Z " fill="#012D46" transform="translate(565,641)"/>
<path d="M0 0 C5.03256409 2.56651635 8.24869335 5.93358004 10.0625 11.375 C10.14744728 14.03394107 10.17844796 16.66585377 10.16015625 19.32421875 C10.1587413 20.09683548 10.15732635 20.86945221 10.15586853 21.66548157 C10.15027466 24.13119389 10.13772333 26.59681515 10.125 29.0625 C10.11998421 30.73502473 10.11542144 32.40755088 10.11132812 34.08007812 C10.10030724 38.17842046 10.08304684 42.27669479 10.0625 46.375 C6.4325 46.375 2.8025 46.375 -0.9375 46.375 C-1.2675 45.055 -1.5975 43.735 -1.9375 42.375 C-2.63875 43.035 -3.34 43.695 -4.0625 44.375 C-9.27829637 47.86883489 -15.96733488 47.08320464 -21.9375 46.375 C-26.0465119 44.90266667 -28.63616954 42.01823301 -30.9375 38.375 C-31.71959259 34.06045586 -31.89156281 29.48665903 -30.05859375 25.4296875 C-27.18703173 21.65780076 -23.39709344 19.6664804 -18.9375 18.375 C-15.77707476 18.0415308 -12.67319852 18.08777821 -9.5 18.1875 C-8.25959961 18.20780273 -8.25959961 18.20780273 -6.99414062 18.22851562 C-4.9749736 18.26353008 -2.95614682 18.31732438 -0.9375 18.375 C-1.2675 15.405 -1.5975 12.435 -1.9375 9.375 C-5.35982972 8.23422343 -8.02423217 8.27684883 -11.625 8.3125 C-12.80449219 8.32152344 -13.98398437 8.33054687 -15.19921875 8.33984375 C-16.10285156 8.35144531 -17.00648438 8.36304688 -17.9375 8.375 C-18.2675 9.695 -18.5975 11.015 -18.9375 12.375 C-22.5675 12.375 -26.1975 12.375 -29.9375 12.375 C-28.76224697 6.38120957 -27.15373412 3.95476851 -21.9375 0.375 C-15.04549682 -2.90416679 -7.06277475 -2.83930643 0 0 Z " fill="#00D2D6" transform="translate(526.9375,781.625)"/>
<path d="M0 0 C5.43359779 3.22799362 8.77965836 7.87181673 11.5625 13.4375 C11.5625 17.3975 11.5625 21.3575 11.5625 25.4375 C0.0125 25.4375 -11.5375 25.4375 -23.4375 25.4375 C-19.88629932 33.39712317 -19.88629932 33.39712317 -13.4375 37.4375 C-9.40526108 38.1267039 -6.22416949 37.82246592 -2.5 36 C-0.55456694 34.60011274 -0.55456694 34.60011274 0.5625 33.4375 C2.41537502 33.36523498 4.27083878 33.3536878 6.125 33.375 C7.13691406 33.38402344 8.14882813 33.39304687 9.19140625 33.40234375 C10.36509766 33.41974609 10.36509766 33.41974609 11.5625 33.4375 C8.90865905 39.77723117 5.25681782 42.93489968 -0.6875 46.25 C-8.18996218 48.62577969 -14.46130581 48.128135 -21.47265625 44.5546875 C-27.91946053 40.88910892 -31.1680806 36.49585749 -33.4375 29.4375 C-34.56587229 21.54792095 -34.09233742 14.54174661 -30.0703125 7.56640625 C-23.0183686 -1.62811391 -10.76497329 -4.88179021 0 0 Z " fill="#01D5D8" transform="translate(672.4375,781.5625)"/>
<path d="M0 0 C3.96 0 7.92 0 12 0 C14.28437907 6.77909234 16.56289031 13.56011721 18.8359375 20.34301758 C19.61035961 22.65117878 20.38639488 24.95879939 21.1640625 27.26586914 C22.28027036 30.57818749 23.39070111 33.89239369 24.5 37.20703125 C24.84998047 38.2414888 25.19996094 39.27594635 25.56054688 40.3417511 C25.88087891 41.3025206 26.20121094 42.2632901 26.53125 43.25317383 C26.81548828 44.09922684 27.09972656 44.94527985 27.39257812 45.81697083 C28 48 28 48 28 51 C28.66 51 29.32 51 30 51 C30.15082031 49.57856689 30.15082031 49.57856689 30.3046875 48.12841797 C31.0101534 43.22441601 32.57403598 38.63726177 34.125 33.9453125 C34.43195801 33.00315887 34.73891602 32.06100525 35.05517578 31.09030151 C35.70135179 29.11105897 36.35032836 27.13272878 37.00195312 25.15527344 C38.00292375 22.1161229 38.99431465 19.07397013 39.984375 16.03125 C40.614025 14.10658809 41.24421418 12.18210246 41.875 10.2578125 C42.17293457 9.34436066 42.47086914 8.43090881 42.77783203 7.48977661 C43.05481934 6.65155365 43.33180664 5.81333069 43.6171875 4.94970703 C43.86065918 4.2091507 44.10413086 3.46859436 44.35498047 2.70559692 C45 1 45 1 46 0 C47.85287502 -0.07226502 49.70833878 -0.0838122 51.5625 -0.0625 C52.57441406 -0.05347656 53.58632813 -0.04445313 54.62890625 -0.03515625 C55.41136719 -0.02355469 56.19382812 -0.01195312 57 0 C55.59346323 7.00113705 53.56088638 13.58543457 51.19140625 20.31640625 C50.8240184 21.37230453 50.45663055 22.42820282 50.07810974 23.51609802 C48.91094283 26.86656109 47.73672318 30.21450431 46.5625 33.5625 C45.77755373 35.81429943 44.99304439 38.06625121 44.20898438 40.31835938 C38.08600711 57.87421576 38.08600711 57.87421576 35 66 C30.71 66 26.42 66 22 66 C19.5726053 58.87186411 17.14676383 51.74320313 14.72355938 44.61364174 C13.597983 41.30216376 12.47176068 37.99090858 11.34399414 34.68017578 C10.04373988 30.8629815 8.74641806 27.04479604 7.44921875 23.2265625 C6.84904182 21.46658432 6.84904182 21.46658432 6.23674011 19.67105103 C4.02355589 13.14849088 1.9354898 6.61044207 0 0 Z " fill="#01D5D9" transform="translate(308,762)"/>
<path d="M0 0 C6.1565625 -0.0928125 6.1565625 -0.0928125 12.4375 -0.1875 C13.71294678 -0.21481201 14.98839355 -0.24212402 16.30249023 -0.27026367 C22.84272804 -0.31768996 29.13923162 -0.2243813 35 3 C39.22936676 7.20994093 40.31638528 11.21260607 40.5 17.125 C40.24155565 22.53192781 39.52206814 26.47793186 35.5703125 30.4296875 C30.90785169 34.53543657 27.63182977 35.1250309 21.58203125 35.09765625 C19.88784058 35.09390991 19.88784058 35.09390991 18.15942383 35.09008789 C16.00769653 35.07643188 16.00769653 35.07643188 13.8125 35.0625 C9.254375 35.041875 4.69625 35.02125 0 35 C0 23.45 0 11.9 0 0 Z " fill="#01324C" transform="translate(454,641)"/>
<path d="M0 0 C3.63 0 7.26 0 11 0 C11.0093457 1.01425049 11.01869141 2.02850098 11.02832031 3.07348633 C11.06819362 6.83662842 11.13394342 10.5989506 11.20751953 14.36157227 C11.23574489 15.99004585 11.25695172 17.61865683 11.27099609 19.24731445 C11.29240532 21.58876971 11.33903964 23.92857045 11.390625 26.26953125 C11.39185364 26.99775589 11.39308228 27.72598053 11.39434814 28.47627258 C11.48767654 31.69698404 11.57438974 33.53455401 13.79199219 35.9597168 C17.1546024 37.54398063 20.39415299 37.53765114 24 37 C27.58552881 35.36312815 28.79315055 34.31027417 31 31 C31.37032217 27.70229658 31.37032217 27.70229658 31.4140625 23.92578125 C31.43342865 23.2419487 31.4527948 22.55811615 31.4727478 21.8535614 C31.53243997 19.67333375 31.57888631 17.49305298 31.625 15.3125 C31.66318943 13.8326595 31.70224174 12.352841 31.7421875 10.87304688 C31.83813202 7.2488995 31.92220151 3.62458743 32 0 C35.63 0 39.26 0 43 0 C43 15.51 43 31.02 43 47 C39.37 47 35.74 47 32 47 C32 45.02 32 43.04 32 41 C31.34 41 30.68 41 30 41 C29.67 41.99 29.34 42.98 29 44 C24.8304961 47.10893184 20.20356202 48.68918673 15.015625 48.3828125 C9.6271587 47.35942161 5.96709931 45.21507349 2.5625 40.9375 C0.03276516 36.18159851 -0.13387534 32.31456363 -0.09765625 27.05078125 C-0.0962413 26.27816452 -0.09482635 25.50554779 -0.09336853 24.70951843 C-0.08777466 22.24380611 -0.07522333 19.77818485 -0.0625 17.3125 C-0.05748421 15.63997527 -0.05292144 13.96744912 -0.04882812 12.29492188 C-0.03780724 8.19657954 -0.02054684 4.09830521 0 0 Z " fill="#00D2D6" transform="translate(443,781)"/>
<path d="M0 0 C3.11546822 2.07274008 4.87583408 4.11747091 6.9140625 7.2734375 C6.9140625 8.5934375 6.9140625 9.9134375 6.9140625 11.2734375 C3.55083684 11.50449881 0.27038046 11.63744009 -3.0859375 11.2734375 C-3.7253125 10.6134375 -4.3646875 9.9534375 -5.0234375 9.2734375 C-7.71931457 6.65925367 -9.08324976 6.97513053 -12.7734375 6.9609375 C-16.241967 6.78383848 -16.241967 6.78383848 -19.0859375 8.2734375 C-19.12657582 9.93960865 -19.1286585 11.60731845 -19.0859375 13.2734375 C-14.8686207 15.33523682 -11.24302717 16.48038602 -6.5859375 17.1484375 C-0.54703604 18.14523004 3.53159056 20.16586541 7.3515625 25.1484375 C8.52565032 29.58388037 8.32375274 33.17374265 6.7265625 37.4609375 C4.00728586 41.6805047 1.39358246 43.69323359 -3.2734375 45.5234375 C-10.70893907 46.98615912 -19.16535396 47.4894309 -25.77734375 43.16796875 C-28.66416448 40.90720553 -30.94911091 38.79759994 -32.0859375 35.2734375 C-32.0859375 33.9534375 -32.0859375 32.6334375 -32.0859375 31.2734375 C-28.4559375 31.2734375 -24.8259375 31.2734375 -21.0859375 31.2734375 C-20.4259375 32.5934375 -19.7659375 33.9134375 -19.0859375 35.2734375 C-16.49840594 36.56720328 -14.53634765 36.44176147 -11.6484375 36.4609375 C-10.68035156 36.47511719 -9.71226562 36.48929688 -8.71484375 36.50390625 C-5.85327023 36.46493201 -5.85327023 36.46493201 -3.0859375 34.2734375 C-2.5859375 31.7734375 -2.5859375 31.7734375 -3.0859375 29.2734375 C-6.48473927 27.00756966 -9.46445807 26.54071986 -13.3984375 25.8984375 C-20.33584285 24.75255761 -24.86654276 22.90166812 -29.4609375 17.4609375 C-31.41226273 13.63333801 -31.6924474 11.51900679 -31.0859375 7.2734375 C-28.87454304 2.57422428 -26.15012414 0.03489266 -21.48828125 -2.03125 C-14.17586921 -4.14768796 -6.75031243 -3.46106928 0 0 Z " fill="#01D4D7" transform="translate(426.0859375,782.7265625)"/>
<path d="M0 0 C12.21 0 24.42 0 37 0 C37 9 37 9 35.890625 11.13671875 C35.07851563 11.90435547 35.07851563 11.90435547 34.25 12.6875 C30.61450148 16.37493421 27.22386716 20.17826823 23.875 24.125 C22.8725838 25.29443198 21.86998438 26.46370694 20.8671875 27.6328125 C18.21317022 30.73032091 15.61229143 33.86525029 13 37 C21.25 37.33 29.5 37.66 38 38 C38 40.97 38 43.94 38 47 C25.13 47 12.26 47 -1 47 C-1 36.68416206 -1 36.68416206 4.25 31.3125 C5.34432451 30.11771345 6.438056 28.92238352 7.53125 27.7265625 C8.09972656 27.11973633 8.66820312 26.51291016 9.25390625 25.88769531 C12.17430149 22.73046712 14.9566944 19.45691803 17.75 16.1875 C18.53745605 15.28028198 18.53745605 15.28028198 19.34082031 14.35473633 C21.85769465 11.97974234 21.85769465 11.97974234 23 9 C15.41 9 7.82 9 0 9 C0 6.03 0 3.06 0 0 Z " fill="#00D6D9" transform="translate(594,781)"/>
<path d="M0 0 C0.99 0.495 0.99 0.495 2 1 C2.92328113 45.72532645 3.25597899 90.28247161 2 135 C2.66 135.33 3.32 135.66 4 136 C3.67 136.33 3.34 136.66 3 137 C2.90420183 140.02879594 2.8745576 143.03473379 2.88647461 146.06385803 C2.88632575 147.02686984 2.88617689 147.98988165 2.88602352 148.98207563 C2.88672254 152.23554929 2.89458533 155.4889677 2.90234375 158.74243164 C2.90426134 161.06454435 2.90572588 163.38665748 2.9067688 165.70877075 C2.90993907 170.72340209 2.91622172 175.73801676 2.92483521 180.75264168 C2.93717599 188.01173162 2.94346209 195.27081487 2.94776857 202.5299136 C2.95484411 214.31771688 2.9656506 226.10551334 2.97949219 237.89331055 C2.98032 238.59942226 2.98114781 239.30553398 2.98200071 240.03304302 C2.98874148 245.75875242 2.99566249 251.48446159 3.00260353 257.21017075 C3.00865308 262.204811 3.01463468 267.19945133 3.02050781 272.1940918 C3.02133594 272.8972238 3.02216407 273.6003558 3.02301729 274.32479484 C3.03671519 286.05891189 3.04646887 297.79302906 3.05341816 309.527152 C3.0584025 317.4086357 3.06826617 325.29009372 3.08184814 333.17156708 C3.08931138 338.07980754 3.09262426 342.98804446 3.0948143 347.89628983 C3.0966855 350.17147597 3.10028484 352.44666146 3.10574722 354.72184181 C3.11297444 357.83032977 3.1140005 360.93876151 3.11352539 364.04725647 C3.11712035 364.94542636 3.12071531 365.84359626 3.12441921 366.76898342 C3.1159637 371.94237055 2.69987061 376.87526016 2 382 C1.99604146 384.52917907 2.04963644 387.05900339 2.15625 389.5859375 C2.21059038 391.0183835 2.26469997 392.45083827 2.31860352 393.88330078 C2.34850372 394.61840881 2.37840393 395.35351685 2.40921021 396.11090088 C2.9180286 408.79971985 3.17264077 421.33547967 2 434 C2.66 434.33 3.32 434.66 4 435 C3.34 435 2.68 435 2 435 C2.0707373 435.88268555 2.14147461 436.76537109 2.21435547 437.67480469 C2.94637086 447.54736375 3.15843032 457.35287193 3.125 467.25 C3.12411377 468.01059723 3.12322754 468.77119446 3.12231445 469.55484009 C3.10659652 481.06081695 2.85817602 492.52189567 2 504 C1.34 504 0.68 504 0 504 C0 337.68 0 171.36 0 0 Z " fill="#03335E" transform="translate(876,247)"/>
<path d="M0 0 C0.33 0.66 0.66 1.32 1 2 C2.00836914 1.83766876 3.01673828 1.67533752 4.05566406 1.50808716 C7.79589575 1.02629156 11.34149191 0.8730893 15.109375 0.87060547 C15.78190308 0.86885315 16.45443115 0.86710083 17.14733887 0.86529541 C19.34825295 0.86093026 21.54908524 0.86379593 23.75 0.8671875 C25.29264338 0.86651293 26.83528666 0.86554162 28.37792969 0.86428833 C31.60222389 0.86281858 34.82649029 0.86494261 38.05078125 0.86962891 C42.16959853 0.87532575 46.28835063 0.87204287 50.40716553 0.86605644 C53.59001144 0.86243128 56.77284208 0.86359839 59.95568848 0.86618423 C61.47383634 0.8668481 62.99198563 0.86604411 64.51013184 0.86370468 C66.63699992 0.86114594 68.76376456 0.86506378 70.890625 0.87060547 C72.09750977 0.87140106 73.30439453 0.87219666 74.54785156 0.87301636 C78.09329232 1.00343166 81.49940956 1.43646116 85 2 C85.33 1.34 85.66 0.68 86 0 C86 0.66 86 1.32 86 2 C87.77890625 1.87431641 87.77890625 1.87431641 89.59375 1.74609375 C100.18971738 1.05875803 110.41856467 1.05131959 121 2 C121 2.66 121 3.32 121 4 C-36.08 4 -193.16 4 -355 4 C-355.33 3.34 -355.66 2.68 -356 2 C-308.92793146 1.04645051 -261.85713375 0.91189131 -214.77731788 0.93630838 C-212.46159453 0.93749966 -210.14587115 0.93858501 -207.83014774 0.93964767 C-184.82699692 0.95044862 -161.82386027 0.97285036 -138.82072067 0.99739647 C-131.40863819 1.00528682 -123.99655553 1.01299887 -116.58447266 1.02050781 C-115.36033901 1.02175 -115.36033901 1.02175 -114.11147539 1.02301729 C-100.53199892 1.03667271 -86.9525223 1.04643676 -73.3730408 1.05341816 C-65.06191215 1.05788351 -56.7508014 1.06588964 -48.43968113 1.07856297 C-42.80061133 1.08694785 -37.16154566 1.09186987 -31.52247004 1.09398818 C-28.27328583 1.09533774 -25.0241299 1.09892159 -21.77495193 1.10574722 C-18.26510416 1.112895 -14.75530662 1.11400414 -11.24545288 1.11352539 C-10.21005918 1.11712035 -9.17466548 1.12071531 -8.10789621 1.12441921 C-7.17680681 1.12304486 -6.24571742 1.12167051 -5.28641319 1.12025452 C-4.47687482 1.12117631 -3.66733645 1.1220981 -2.83326662 1.12304783 C-0.98136553 1.20075397 -0.98136553 1.20075397 0 0 Z " fill="#073F6D" transform="translate(627,110)"/>
<path d="M0 0 C152.46 0 304.92 0 462 0 C462 0.66 462 1.32 462 2 C451.77 2 441.54 2 431 2 C430.67 2.66 430.34 3.32 430 4 C430 3.34 430 2.68 430 2 C429.16158066 2.01252808 428.32316132 2.02505615 427.45933533 2.03796387 C419.44622407 2.15739328 411.43309016 2.27514738 403.41992855 2.39115143 C399.30313212 2.45080457 395.1863462 2.51104183 391.06958008 2.57275391 C341.35400508 3.31662481 341.35400508 3.31662481 318.5625 2.5 C317.12566291 2.45147031 315.68881385 2.40329362 314.25195312 2.35546875 C310.83448959 2.2409908 307.41720651 2.12193885 304 2 C303.67 2.66 303.34 3.32 303 4 C303 3.34 303 2.68 303 2 C302.44280273 2.03029297 301.88560547 2.06058594 301.31152344 2.09179688 C286.18104438 2.8751351 271.08502885 3.08744576 255.9375 3.0625 C254.54806183 3.06033981 254.54806183 3.06033981 253.1305542 3.05813599 C246.42034363 3.04588287 239.71017811 3.02377462 233 3 C226.20427791 2.97630161 219.40857706 2.95605514 212.61282349 2.94406128 C209.91494646 2.93759573 207.21714064 2.92511294 204.51928711 2.91235352 C202.88525453 2.90872575 201.2512213 2.90537343 199.6171875 2.90234375 C198.87041245 2.89717743 198.12363739 2.89201111 197.35423279 2.88668823 C193.55112607 2.82025438 193.55112607 2.82025438 190 4 C190 3.34 190 2.68 190 2 C189.42405783 2.16238096 188.84811565 2.32476192 188.25472069 2.49206352 C186.05560126 2.98747432 184.17290574 3.12576352 181.92446899 3.12698364 C181.12090973 3.12980347 180.31735046 3.13262329 179.48944092 3.13552856 C178.61587952 3.13350433 177.74231812 3.1314801 176.84228516 3.12939453 C175.91453278 3.13114685 174.9867804 3.13289917 174.03091431 3.13470459 C170.95027817 3.13911765 167.86969928 3.13618079 164.7890625 3.1328125 C162.62462351 3.13348717 160.46018459 3.13445856 158.29574585 3.13571167 C153.73768397 3.13718911 149.17964164 3.13503804 144.62158203 3.13037109 C138.87069215 3.12476106 133.11984945 3.12798251 127.36896133 3.13382339 C103.56140554 3.15421318 79.78653425 3.1042475 56 2 C55.67 2.99 55.34 3.98 55 5 C55 4.01 55 3.02 55 2 C53.96818604 2.03552979 52.93637207 2.07105957 51.87329102 2.10766602 C47.95767081 2.24038575 44.04177623 2.36266965 40.12573242 2.48217773 C38.44725886 2.53477492 36.76886547 2.59001266 35.09057617 2.64819336 C23.65544156 3.04227202 12.40970711 2.88134588 1 2 C0.67 1.34 0.34 0.68 0 0 Z " fill="#03345F" transform="translate(278,885)"/>
<path d="M0 0 C3.3 0 6.6 0 10 0 C10 21.78 10 43.56 10 66 C6.7 66 3.4 66 0 66 C0 44.22 0 22.44 0 0 Z " fill="#00D8DC" transform="translate(550,762)"/>
<path d="M0 0 C0 3.3 0 6.6 0 10 C-1.4025 10.2475 -2.805 10.495 -4.25 10.75 C-8.28470516 11.66841797 -10.60063874 12.44894534 -13 16 C-15.43439703 22.52166879 -15.43662611 29.03438165 -15.625 35.9375 C-15.66367187 37.09830078 -15.70234375 38.25910156 -15.7421875 39.45507812 C-15.83595387 42.30323169 -15.92165917 45.15138738 -16 48 C-19.3 48 -22.6 48 -26 48 C-26 32.49 -26 16.98 -26 1 C-22.7 1 -19.4 1 -16 1 C-15.67 2.98 -15.34 4.96 -15 7 C-14.13375 5.824375 -14.13375 5.824375 -13.25 4.625 C-9.15264029 -0.15525299 -6.21630417 -0.23908862 0 0 Z " fill="#01D6DA" transform="translate(720,780)"/>
<path d="M0 0 C3.63 0 7.26 0 11 0 C11 15.51 11 31.02 11 47 C7.37 47 3.74 47 0 47 C0 31.49 0 15.98 0 0 Z " fill="#00D1D6" transform="translate(373,781)"/>
<path d="M0 0 C3.3 0 6.6 0 10 0 C10 15.51 10 31.02 10 47 C6.7 47 3.4 47 0 47 C0 31.49 0 15.98 0 0 Z " fill="#00D8DC" transform="translate(573,781)"/>
<path d="M0 0 C25.08 0 50.16 0 76 0 C76 6.93 76 13.86 76 21 C58.51 20.67 41.02 20.34 23 20 C23 19.67 23 19.34 23 19 C39.83 19 56.66 19 74 19 C74 13.39 74 7.78 74 2 C49.91 2 25.82 2 1 2 C1 39.29 1 76.58 1 115 C0.67 115 0.34 115 0 115 C0 77.05 0 39.1 0 0 Z " fill="#02ECEB" transform="translate(659,620)"/>
<path d="M0 0 C45.54 0 91.08 0 138 0 C137.67 0.66 137.34 1.32 137 2 C132.79268203 3.26011501 128.52964814 3.11344977 124.1796875 3.0625 C123.43921173 3.05871338 122.69873596 3.05492676 121.93582153 3.05102539 C119.58215371 3.03886125 117.22861149 3.02022748 114.875 3 C111.7682325 2.97341939 108.66152581 2.95342881 105.5546875 2.9375 C104.48587845 2.92505249 104.48587845 2.92505249 103.39547729 2.91235352 C100.30824946 2.89700325 97.95443943 3.01518686 95 4 C95 3.34 95 2.68 95 2 C94.01 2.33 93.02 2.66 92 3 C89.13499433 3.09665348 86.29449729 3.13640185 83.42944336 3.12939453 C82.55439651 3.13114685 81.67934967 3.13289917 80.77778625 3.13470459 C77.88178532 3.13911038 74.98584532 3.13618982 72.08984375 3.1328125 C70.08110034 3.13348584 68.07235702 3.13445612 66.06361389 3.13571167 C61.85286687 3.13718687 57.64214105 3.13503955 53.43139648 3.13037109 C48.02506545 3.12467025 42.61878402 3.12795619 37.2124548 3.13394356 C33.06473921 3.13755083 28.91703546 3.13640988 24.76931953 3.13381577 C22.77534543 3.13314715 20.78137025 3.13397265 18.78739738 3.13629532 C16.00528985 3.13882495 13.22326357 3.13497699 10.44116211 3.12939453 C9.19666794 3.13243088 9.19666794 3.13243088 7.92703247 3.13552856 C2.22852957 3.11426479 2.22852957 3.11426479 0 2 C0 1.34 0 0.68 0 0 Z " fill="#003550" transform="translate(391,579)"/>
<path d="M0 0 C11.22 0 22.44 0 34 0 C34 0.33 34 0.66 34 1 C30.92382812 1.29296875 30.92382812 1.29296875 27.84765625 1.5859375 C27.23792969 1.72257813 26.62820313 1.85921875 26 2 C25.67 2.66 25.34 3.32 25 4 C27.97 4.33 30.94 4.66 34 5 C34 5.33 34 5.66 34 6 C30.37 6 26.74 6 23 6 C22.34 7.32 21.68 8.64 21 10 C17.99842186 12.30890626 14.7500152 12.41736539 11.02734375 12.3203125 C6.7665148 11.64711795 3.98267174 9.04818319 1.125 6 C0 4 0 4 0 0 Z " fill="#03192B" transform="translate(650,808)"/>
<path d="M0 0 C1.02222656 -0.00515625 2.04445313 -0.0103125 3.09765625 -0.015625 C5.8984578 0.24634818 7.55340904 0.80925438 9.9375 2.25 C6.9375 3.25 6.9375 3.25 3.9375 2.25 C3.9375 3.9 3.9375 5.55 3.9375 7.25 C5.3915625 7.86875 5.3915625 7.86875 6.875 8.5 C9.9375 10.25 9.9375 10.25 10.8125 12.4375 C10.85375 13.035625 10.895 13.63375 10.9375 14.25 C10.2775 13.92 9.6175 13.59 8.9375 13.25 C8.9375 12.59 8.9375 11.93 8.9375 11.25 C5.51517028 10.10922343 2.85076783 10.15184883 -0.75 10.1875 C-1.92949219 10.19652344 -3.10898437 10.20554687 -4.32421875 10.21484375 C-5.22785156 10.22644531 -6.13148438 10.23804688 -7.0625 10.25 C-7.3925 11.57 -7.7225 12.89 -8.0625 14.25 C-11.6925 14.25 -15.3225 14.25 -19.0625 14.25 C-17.88724697 8.25620957 -16.27873412 5.82976851 -11.0625 2.25 C-7.26177815 0.41362429 -4.20821218 -0.02128047 0 0 Z " fill="#01D2D6" transform="translate(516.0625,779.75)"/>
<path d="M0 0 C0.75732422 0.00966797 1.51464844 0.01933594 2.29492188 0.02929688 C3.08060547 0.05443359 3.86628906 0.07957031 4.67578125 0.10546875 C5.87170898 0.12577148 5.87170898 0.12577148 7.09179688 0.14648438 C9.05758092 0.18179786 11.02301707 0.23560428 12.98828125 0.29296875 C13.27734375 5.94140625 13.27734375 5.94140625 10.67578125 9.10546875 C6.8380749 12.22918322 3.83629246 12.5942673 -1.0703125 12.50390625 C-3.01171875 12.29296875 -3.01171875 12.29296875 -5.51171875 11.16796875 C-7.01171875 9.29296875 -7.01171875 9.29296875 -7.44921875 6.29296875 C-6.75926057 1.56182697 -4.72989325 -0.10668932 0 0 Z " fill="#041D2E" transform="translate(513.01171875,807.70703125)"/>
<path d="M0 0 C3.0625 1.625 3.0625 1.625 5 4 C5.33 5.98 5.66 7.96 6 10 C-1.59 10 -9.18 10 -17 10 C-16.05653757 5.28268787 -15.66165406 3.78975286 -11.9453125 0.953125 C-8.08529534 -0.93812839 -4.15641237 -0.74122687 0 0 Z " fill="#031D2F" transform="translate(667,789)"/>
<path d="M0 0 C4.228125 -0.04125 8.45625 -0.0825 12.8125 -0.125 C14.1425708 -0.14320801 15.4726416 -0.16141602 16.84301758 -0.18017578 C18.41539185 -0.18766846 18.41539185 -0.18766846 20.01953125 -0.1953125 C21.62985229 -0.21102295 21.62985229 -0.21102295 23.27270508 -0.22705078 C26 0 26 0 29 2 C20.09 2 11.18 2 2 2 C2 12.23 2 22.46 2 33 C10.58 33 19.16 33 28 33 C28 33.66 28 34.32 28 35 C18.76 35 9.52 35 0 35 C0 23.45 0 11.9 0 0 Z " fill="#01253E" transform="translate(454,641)"/>
<path d="M0 0 C26.4 0 52.8 0 80 0 C80 0.66 80 1.32 80 2 C72.31294968 3.00536916 64.7113568 3.12250846 56.96609497 3.07516479 C54.83082081 3.06223243 52.69560975 3.05584469 50.56030273 3.05102539 C46.04017298 3.03969721 41.52009666 3.02040567 37 3 C31.73073722 2.97637289 26.46150289 2.95603731 21.19219971 2.94406128 C19.08821682 2.93757923 16.98432413 2.92508192 14.88037109 2.91235352 C13.6114502 2.90905029 12.3425293 2.90574707 11.03515625 2.90234375 C9.9150415 2.89710693 8.79492676 2.89187012 7.64086914 2.88647461 C5.02170698 2.8189853 5.02170698 2.8189853 3 4 C3 3.34 3 2.68 3 2 C2.01 2 1.02 2 0 2 C0 1.34 0 0.68 0 0 Z " fill="#003651" transform="translate(546,579)"/>
<path d="M0 0 C0.99 0.495 0.99 0.495 2 1 C1.0350221 6.37975178 -2.58830634 9.90468982 -6 14 C-6.70898438 14.85722656 -7.41796875 15.71445312 -8.1484375 16.59765625 C-17.78346982 27.80472016 -29.2803569 34.26827728 -44 36 C-44.9590625 36.2784375 -44.9590625 36.2784375 -45.9375 36.5625 C-52.2871326 37.90939176 -57.89241431 36.74502448 -64 35 C-64 34.34 -64 33.68 -64 33 C-63.43603516 33.01047363 -62.87207031 33.02094727 -62.29101562 33.03173828 C-59.69405719 33.07374478 -57.09717061 33.09946602 -54.5 33.125 C-53.1696875 33.15013672 -53.1696875 33.15013672 -51.8125 33.17578125 C-37.83477085 33.27855867 -24.36337762 28.4373724 -14 19 C-13.30132812 18.39285156 -12.60265625 17.78570312 -11.8828125 17.16015625 C-6.47237487 12.16826191 -3.19811836 6.59006207 0 0 Z " fill="#014E68" transform="translate(432,371)"/>
<path d="M0 0 C0.96679688 0.00902344 1.93359375 0.01804687 2.9296875 0.02734375 C3.65414062 0.03894531 4.37859375 0.05054687 5.125 0.0625 C1.30437716 2.43148777 -2.82854041 2.76452583 -7.1875 3.375 C-29.37046737 6.83397085 -49.5298582 16.97901207 -66.68359375 31.36328125 C-68.68848998 32.91787993 -70.56827107 34.02736196 -72.875 35.0625 C-71.93909496 33.9569811 -71.00120142 32.85314547 -70.0625 31.75 C-69.27939453 30.82767578 -69.27939453 30.82767578 -68.48046875 29.88671875 C-65.49911953 26.49915163 -62.77779339 24.35327003 -58.875 22.0625 C-57.56177017 21.1468792 -56.24936494 20.23007529 -54.9375 19.3125 C-39.41024426 8.90923865 -18.8872 -0.23033171 0 0 Z " fill="#033562" transform="translate(264.875,112.9375)"/>
<path d="M0 0 C3.5625 0.3125 3.5625 0.3125 5.5 1.5 C6.94968434 3.97299093 6.98567323 5.49134512 6.5625 8.3125 C5.5 10.125 5.5 10.125 3.5625 11.3125 C0 11.625 0 11.625 -3.4375 11.3125 C-5.4375 9.3125 -5.4375 9.3125 -5.6875 5.8125 C-5.34943772 1.07962813 -4.72246521 0.42931502 0 0 Z " fill="#01D5D9" transform="translate(378.4375,761.6875)"/>
<path d="M0 0 C3.30359241 1.65179621 3.70151903 5.31636413 4.8203125 8.6484375 C5.08383514 9.4167691 5.34735779 10.18510071 5.61886597 10.97671509 C6.17539942 12.6046885 6.72828799 14.23391175 7.27783203 15.86425781 C8.1201476 18.36061901 8.9751248 20.8523647 9.83203125 23.34375 C10.37055167 24.92422041 10.90833659 26.50494166 11.4453125 28.0859375 C11.70152374 28.83289886 11.95773499 29.57986023 12.22171021 30.34945679 C13.22855035 33.35228217 14 35.81017307 14 39 C18.29 39 22.58 39 27 39 C27.33 38.01 27.66 37.02 28 36 C28.33 36.99 28.66 37.98 29 39 C27 41 27 41 23.9609375 41.1953125 C22.77757812 41.17210937 21.59421875 41.14890625 20.375 41.125 C18.59222656 41.09792969 18.59222656 41.09792969 16.7734375 41.0703125 C15.40058594 41.03550781 15.40058594 41.03550781 14 41 C11 35.375 11 35.375 11 32 C10.34 32 9.68 32 9 32 C8.66226562 30.80761719 8.32453125 29.61523438 7.9765625 28.38671875 C7.52631533 26.82023382 7.07577942 25.25383185 6.625 23.6875 C6.40328125 22.90181641 6.1815625 22.11613281 5.953125 21.30664062 C5.62441406 20.1706543 5.62441406 20.1706543 5.2890625 19.01171875 C5.09006348 18.31522217 4.89106445 17.61872559 4.68603516 16.90112305 C3.98287804 14.7150302 3.98287804 14.7150302 2 12 C1.55570562 9.95130926 1.18705805 7.88545707 0.875 5.8125 C0.70742188 4.72582031 0.53984375 3.63914062 0.3671875 2.51953125 C0.24601562 1.68808594 0.12484375 0.85664062 0 0 Z " fill="#041C28" transform="translate(316,789)"/>
<path d="M0 0 C1.875 1.1875 1.875 1.1875 3 3 C3.42317323 5.82115488 3.38718434 7.33950907 1.9375 9.8125 C-1.08503156 11.66501934 -3.54932719 11.37643703 -7 11 C-9 8 -9 8 -8.75 4.375 C-8.5025 3.26125 -8.255 2.1475 -8 1 C-5.20129973 -0.39935013 -3.09501208 -0.25265405 0 0 Z " fill="#01D7DA" transform="translate(581,762)"/>
<path d="M0 0 C0.66 0.66 1.32 1.32 2 2 C1.24074219 2.47050781 0.48148437 2.94101562 -0.30078125 3.42578125 C-1.29464844 4.04839844 -2.28851563 4.67101562 -3.3125 5.3125 C-4.29863281 5.92738281 -5.28476562 6.54226563 -6.30078125 7.17578125 C-8.92958501 8.82795003 -8.92958501 8.82795003 -10.60546875 10.60546875 C-12 12 -12 12 -14.00390625 12.98046875 C-16.267763 14.13676349 -17.35700626 15.33797735 -18.9375 17.3125 C-21.47116603 20.39000849 -24.14002443 23.21732107 -27 26 C-27.515625 26.598125 -28.03125 27.19625 -28.5625 27.8125 C-30 29 -30 29 -34 29 C-34.33 27.68 -34.66 26.36 -35 25 C-33.68 25.33 -32.36 25.66 -31 26 C-30.33355469 25.23816406 -29.66710937 24.47632813 -28.98046875 23.69140625 C-20.48149518 14.11332153 -11.61543226 5.70733585 0 0 Z " fill="#01435E" transform="translate(495,478)"/>
<path d="M0 0 C1.65322266 0.01740234 1.65322266 0.01740234 3.33984375 0.03515625 C4.99693359 0.04869141 4.99693359 0.04869141 6.6875 0.0625 C7.54214844 0.07410156 8.39679688 0.08570313 9.27734375 0.09765625 C9.27734375 0.42765625 9.27734375 0.75765625 9.27734375 1.09765625 C5.64734375 1.09765625 2.01734375 1.09765625 -1.72265625 1.09765625 C-1.67820531 6.06045013 -1.60806576 11.02200754 -1.51513672 15.98413086 C-1.48708641 17.66860051 -1.46579335 19.35319789 -1.45166016 21.0378418 C-1.424161 34.08568147 -1.424161 34.08568147 3.27734375 46.09765625 C1.38574219 45.8125 1.38574219 45.8125 -0.72265625 45.09765625 C-4.65309264 37.30760214 -4.11512385 29.04033037 -4.00390625 20.52001953 C-3.97237291 18.07569323 -3.96288987 15.63201083 -3.95703125 13.1875 C-3.94787462 11.6367108 -3.93750316 10.08592818 -3.92578125 8.53515625 C-3.92153137 7.80296875 -3.91728149 7.07078125 -3.91290283 6.31640625 C-3.82450635 0.13717742 -3.82450635 0.13717742 0 0 Z " fill="#041423" transform="translate(444.72265625,778.90234375)"/>
<path d="M0 0 C0.33 0.66 0.66 1.32 1 2 C1.66 2.33 2.32 2.66 3 3 C3 3.99 3 4.98 3 6 C2.34 6 1.68 6 1 6 C0.814375 6.928125 0.62875 7.85625 0.4375 8.8125 C-2.36779844 18.47519462 -9.79711233 27.21588487 -17 34 C-18.485 34.495 -18.485 34.495 -20 35 C-20 35.66 -20 36.32 -20 37 C-21.485 37.495 -21.485 37.495 -23 38 C-22.46333159 34.15946666 -21.01743308 32.9404608 -18 30.625 C-8.62547782 22.58115162 -3.10195285 11.84381998 0 0 Z " fill="#023A56" transform="translate(640,236)"/>
<path d="M0 0 C0.33 0 0.66 0 1 0 C1 16.17 1 32.34 1 49 C-6.04757492 50.40951498 -11.27043427 50.19740922 -18 48 C-16.38405168 45.95880212 -14.7143618 43.95927063 -13 42 C-12.34 42 -11.68 42 -11 42 C-11 43.98 -11 45.96 -11 48 C-7.37 48 -3.74 48 0 48 C0 32.16 0 16.32 0 0 Z " fill="#030B14" transform="translate(486,780)"/>
<path d="M0 0 C9.72657452 -0.11237377 19.30429046 0.07027443 29 1 C29 1.33 29 1.66 29 2 C25.81251971 2.02932572 22.62507472 2.04690739 19.4375 2.0625 C18.09461914 2.07506836 18.09461914 2.07506836 16.72460938 2.08789062 C11.70002057 2.10629571 6.95182709 1.86266398 2 1 C2 2.98 2 4.96 2 7 C9.26 7 16.52 7 24 7 C23.67 7.66 23.34 8.32 23 9 C15.41 9 7.82 9 0 9 C0 6.03 0 3.06 0 0 Z " fill="#00C8CC" transform="translate(594,781)"/>
<path d="M0 0 C0.33 0 0.66 0 1 0 C1 14.85 1 29.7 1 45 C0.01 45.495 0.01 45.495 -1 46 C-1.16843638 40.71659769 -1.32890388 35.43303388 -1.48217773 30.14916992 C-1.53535662 28.35385725 -1.59066504 26.55860629 -1.64819336 24.76342773 C-1.73078205 22.17445172 -1.8055631 19.58534623 -1.87890625 16.99609375 C-1.90594131 16.20101913 -1.93297638 15.40594452 -1.96083069 14.58677673 C-2.08407088 9.92449312 -1.87190955 5.58882076 -1 1 C-0.67 0.67 -0.34 0.34 0 0 Z " fill="#033665" transform="translate(144,543)"/>
<path d="M0 0 C0.33 0.66 0.66 1.32 1 2 C2.08796875 1.91621094 3.1759375 1.83242188 4.296875 1.74609375 C12.98802137 1.12664267 21.31860832 0.91273515 30 2 C30 2.66 30 3.32 30 4 C16.14 4 2.28 4 -12 4 C-12 3.34 -12 2.68 -12 2 C-10.37585622 1.80522261 -8.75063577 1.61940542 -7.125 1.4375 C-6.22007812 1.33308594 -5.31515625 1.22867188 -4.3828125 1.12109375 C-2 1 -2 1 0 2 C0 1.34 0 0.68 0 0 Z " fill="#022C4D" transform="translate(430,550)"/>
<path d="M0 0 C-5.20649866 5.20649866 -19.08839043 3.09958769 -26.1875 3.125 C-27.12053955 3.12967285 -28.0535791 3.1343457 -29.01489258 3.13916016 C-30.32816528 3.13601807 -30.32816528 3.13601807 -31.66796875 3.1328125 C-32.45453857 3.13168457 -33.2411084 3.13055664 -34.05151367 3.12939453 C-36 3 -36 3 -38 2 C-38 1.34 -38 0.68 -38 0 C-32.90985861 -0.16744386 -27.81956506 -0.32802081 -22.72900391 -0.48217773 C-20.99652241 -0.5356173 -19.2640982 -0.59094818 -17.53173828 -0.64819336 C-15.04472202 -0.73004993 -12.5575805 -0.80514988 -10.0703125 -0.87890625 C-9.29317902 -0.90594131 -8.51604553 -0.93297638 -7.71536255 -0.96083069 C-2.22774341 -1.11387171 -2.22774341 -1.11387171 0 0 Z " fill="#002E49" transform="translate(665,579)"/>
<path d="M0 0 C0.66 0.66 1.32 1.32 2 2 C-12.12878318 12.4176228 -12.12878318 12.4176228 -18.8125 17.1875 C-19.58207031 17.73792969 -20.35164063 18.28835938 -21.14453125 18.85546875 C-23 20 -23 20 -25 20 C-25 20.66 -25 21.32 -25 22 C-26.65 22.66 -28.3 23.32 -30 24 C-26.74115793 18.04790002 -22.30461462 15.09185273 -16.6875 11.4375 C-15.02435337 10.33261238 -13.36158683 9.22715239 -11.69921875 8.12109375 C-10.90563965 7.59757324 -10.11206055 7.07405273 -9.29443359 6.53466797 C-6.14316374 4.4268916 -3.06967779 2.22458431 0 0 Z " fill="#01405C" transform="translate(517,287)"/>
<path d="M0 0 C0.99 0.33 1.98 0.66 3 1 C3.33569297 2.62451419 3.6684796 4.24962917 4 5.875 C4.185625 6.77992188 4.37125 7.68484375 4.5625 8.6171875 C5 11 5 11 5 13 C5.66 13.66 6.32 14.32 7 15 C6.67 15.66 6.34 16.32 6 17 C7.92585937 16.75636719 7.92585937 16.75636719 9.890625 16.5078125 C14.85713754 15.95749024 19.7571734 15.85111088 24.75 15.875 C25.57371094 15.87113281 26.39742187 15.86726562 27.24609375 15.86328125 C31.29530812 15.86980172 35.04966706 15.98832937 39 17 C39 17.33 39 17.66 39 18 C37.9805127 17.99476318 36.96102539 17.98952637 35.91064453 17.98413086 C32.13493729 17.96605624 28.35923388 17.95455895 24.58349609 17.94506836 C22.94807289 17.94003379 21.3126542 17.93320573 19.67724609 17.92456055 C17.32909025 17.91245665 14.98099381 17.906763 12.6328125 17.90234375 C11.89942657 17.89718246 11.16604065 17.89202118 10.41043091 17.88670349 C6.57877344 17.816844 6.57877344 17.816844 3 19 C2.01 12.73 1.02 6.46 0 0 Z " fill="#013755" transform="translate(597,535)"/>
<path d="M0 0 C0.72533936 -0.00467285 1.45067871 -0.0093457 2.19799805 -0.01416016 C5.9654081 -0.00280859 9.46290199 0.22024637 13.125 1.125 C11.125 3.125 11.125 3.125 8.86938477 3.3203125 C7.94440186 3.29710937 7.01941895 3.27390625 6.06640625 3.25 C4.52629883 3.22679687 4.52629883 3.22679687 2.95507812 3.203125 C0.81182871 3.15188174 -1.33140148 3.0998264 -3.47460938 3.046875 C-10.5173956 2.94195453 -16.99765085 3.59347152 -23.875 5.125 C-23.875 4.465 -23.875 3.805 -23.875 3.125 C-16.80284544 -0.85612133 -7.91226814 0.03567528 0 0 Z " fill="#003F5C" transform="translate(532.875,484.875)"/>
<path d="M0 0 C-0.33 1.32 -0.66 2.64 -1 4 C-1.99 4 -2.98 4 -4 4 C-4 3.34 -4 2.68 -4 2 C-4.78375 2.165 -5.5675 2.33 -6.375 2.5 C-10.18993245 3.02619758 -13.79193932 3.0332227 -17.6328125 2.9375 C-19.99757939 2.90759066 -19.99757939 2.90759066 -22.1953125 3.58984375 C-22.79085937 3.72519531 -23.38640625 3.86054688 -24 4 C-25.75 2.5625 -25.75 2.5625 -27 1 C-21.7588619 -0.01054623 -16.56825005 -0.34977854 -11.25 -0.625 C-10.38761719 -0.6765625 -9.52523437 -0.728125 -8.63671875 -0.78125 C-7.40115234 -0.84699219 -7.40115234 -0.84699219 -6.140625 -0.9140625 C-5.01962402 -0.9752124 -5.01962402 -0.9752124 -3.87597656 -1.03759766 C-2 -1 -2 -1 0 0 Z " fill="#00576E" transform="translate(542,470)"/>
<path d="M0 0 C1.18529297 0.32484375 1.18529297 0.32484375 2.39453125 0.65625 C12.71962613 3.20507342 22.42268197 3.30446438 33 3 C33.495 3.99 33.495 3.99 34 5 C31.60533136 5.36447158 29.2098929 5.7168294 26.8125 6.0625 C26.13896484 6.16626953 25.46542969 6.27003906 24.77148438 6.37695312 C20.89590644 6.92520561 17.78283781 6.99058495 14 6 C12.88625 5.87625 11.7725 5.7525 10.625 5.625 C6.62313588 4.93502343 3.65909886 3.7175362 0 2 C0 1.34 0 0.68 0 0 Z " fill="#013E59" transform="translate(559,279)"/>
<path d="M0 0 C0.66 0.33 1.32 0.66 2 1 C-5.59 8.59 -13.18 16.18 -21 24 C-21 19.87532888 -18.81803239 18.21429075 -16.125 15.375 C-15.38866333 14.58464355 -15.38866333 14.58464355 -14.63745117 13.77832031 C-10.01867417 8.88654496 -5.10370758 4.38409588 0 0 Z " fill="#021427" transform="translate(199,142)"/>
<path d="M0 0 C0.33 1.32 0.66 2.64 1 4 C-0.38658979 5.15700194 -1.78472441 6.30017623 -3.1875 7.4375 C-3.96480469 8.07558594 -4.74210937 8.71367188 -5.54296875 9.37109375 C-10.2170033 12.46977802 -14.36505549 12.05772223 -19.8125 11.5625 C-20.97394531 11.46066406 -22.13539063 11.35882812 -23.33203125 11.25390625 C-24.21246094 11.17011719 -25.09289062 11.08632813 -26 11 C-26 10.67 -26 10.34 -26 10 C-24.91460937 9.89042969 -23.82921875 9.78085937 -22.7109375 9.66796875 C-21.26555848 9.50841392 -19.82024949 9.34822389 -18.375 9.1875 C-17.66214844 9.11724609 -16.94929688 9.04699219 -16.21484375 8.97460938 C-10.25951917 8.29165931 -5.72541843 6.95244717 -1.625 2.3125 C-1.08875 1.549375 -0.5525 0.78625 0 0 Z " fill="#03121E" transform="translate(433,819)"/>
<path d="M0 0 C1.89525837 6.04869693 -0.98054085 12.23011672 -3 18 C-3.66 18 -4.32 18 -5 18 C-4.56699236 11.18012971 -3.09212176 6.08356979 0 0 Z " fill="#031D29" transform="translate(356,790)"/>
<path d="M0 0 C4.2841203 1.52452929 5.86470292 4.38803458 8.25 8.125 C8.95640625 9.22070312 9.6628125 10.31640625 10.390625 11.4453125 C10.92171875 12.28835938 11.4528125 13.13140625 12 14 C11.01 15.485 11.01 15.485 10 17 C8.32771465 14.545324 6.6620314 12.08660326 5 9.625 C4.52304687 8.92632812 4.04609375 8.22765625 3.5546875 7.5078125 C2.87792969 6.50234375 2.87792969 6.50234375 2.1875 5.4765625 C1.76855469 4.85861816 1.34960938 4.24067383 0.91796875 3.60400391 C0 2 0 2 0 0 Z " fill="#01445F" transform="translate(437,469)"/>
<path d="M0 0 C1.22976563 0.72316406 1.22976563 0.72316406 2.484375 1.4609375 C3.56203125 2.09257812 4.6396875 2.72421875 5.75 3.375 C6.81734375 4.00148438 7.8846875 4.62796875 8.984375 5.2734375 C11.29738678 6.59772663 13.59951417 7.84636846 16 9 C16 9.66 16 10.32 16 11 C9.28421382 9.25389559 3.76365063 7.31330262 -1 2 C-0.67 1.34 -0.34 0.68 0 0 Z " fill="#014660" transform="translate(542,269)"/>
<path d="M0 0 C0.99 0 1.98 0 3 0 C4.65 4.62 6.3 9.24 8 14 C6.68 14.33 5.36 14.66 4 15 C3.51787786 13.43840941 3.03944127 11.87568072 2.5625 10.3125 C2.29566406 9.44238281 2.02882813 8.57226562 1.75390625 7.67578125 C1.03655471 5.12974079 0.482459 2.5996577 0 0 Z " fill="#03536D" transform="translate(520,238)"/>
<path d="M0 0 C3.21107147 1.60553573 3.45574161 4.45419565 4.625 7.75 C5.07101562 8.98234375 5.51703125 10.2146875 5.9765625 11.484375 C6.87700629 14.57750252 7.23061312 16.81996652 7 20 C5.0549 17.08235 4.54723683 15.37462715 4 12 C3.34 12 2.68 12 2 12 C1.34 8.04 0.68 4.08 0 0 Z " fill="#031E2B" transform="translate(308,766)"/>
<path d="M0 0 C0.99 0.33 1.98 0.66 3 1 C0.29384966 10.59453303 0.29384966 10.59453303 -4 14 C-3.46148032 8.72250715 -2.22656164 4.74354436 0 0 Z " fill="#041A27" transform="translate(349,810)"/>
<path d="M0 0 C1.76923828 0.01353516 1.76923828 0.01353516 3.57421875 0.02734375 C4.47785156 0.03894531 5.38148438 0.05054688 6.3125 0.0625 C6.3125 1.0525 6.3125 2.0425 6.3125 3.0625 C4.02108714 3.11634521 1.72931812 3.15522087 -0.5625 3.1875 C-2.47675781 3.22230469 -2.47675781 3.22230469 -4.4296875 3.2578125 C-7.6875 3.0625 -7.6875 3.0625 -9.6875 1.0625 C-6.26517028 -0.07827657 -3.60076783 -0.03565117 0 0 Z " fill="#01CBD0" transform="translate(661.6875,779.9375)"/>
<path d="M0 0 C3.83736322 0.95934081 4.59660228 1.23609263 7 4 C5.68 3.67 4.36 3.34 3 3 C1.68 5.64 0.36 8.28 -1 11 C-1.99 10.67 -2.98 10.34 -4 10 C-2.68 6.7 -1.36 3.4 0 0 Z " fill="#00435F" transform="translate(447,368)"/>
<path d="M0 0 C0.99 0.33 1.98 0.66 3 1 C2.91276622 2.77174819 2.80458345 4.54247377 2.6875 6.3125 C2.62949219 7.29863281 2.57148437 8.28476562 2.51171875 9.30078125 C1.95377187 12.24384457 1.31459868 13.18182999 -1 15 C-1.97798721 11.20431539 -1.92653069 8.4994001 -1.0625 4.6875 C-0.86785156 3.80449219 -0.67320312 2.92148437 -0.47265625 2.01171875 C-0.31667969 1.34785156 -0.16070313 0.68398438 0 0 Z " fill="#01293D" transform="translate(640,684)"/>
<path d="M0 0 C3.53631503 0.55876839 4.91895128 1.65972661 7.125 4.4375 C8.70296618 6.39564974 10.21849868 8.21849868 12 10 C8 10 8 10 6.3671875 8.50390625 C5.87476563 7.86324219 5.38234375 7.22257812 4.875 6.5625 C2.81128519 3.83429715 2.81128519 3.83429715 0 2 C0 1.34 0 0.68 0 0 Z " fill="#01415D" transform="translate(331,382)"/>
<path d="M0 0 C3.47263143 0.56373887 4.91317065 1.60850967 7.125 4.3125 C7.87136719 5.20388672 7.87136719 5.20388672 8.6328125 6.11328125 C10.00183084 8.00252656 11.02026781 9.8865777 12 12 C9.32543283 11.62207203 8.19388186 11.20233084 6.296875 9.22265625 C5.78640625 8.50980469 5.2759375 7.79695313 4.75 7.0625 C4.22921875 6.35222656 3.7084375 5.64195312 3.171875 4.91015625 C2 3 2 3 2 1 C1.34 0.67 0.68 0.34 0 0 Z " fill="#013E5A" transform="translate(431,297)"/>
<path d="M0 0 C1.25127906 3.54667178 0.72285053 5.72253438 -0.4375 9.25 C-0.72496094 10.14203125 -1.01242187 11.0340625 -1.30859375 11.953125 C-1.53675781 12.62859375 -1.76492188 13.3040625 -2 14 C-2.66 14 -3.32 14 -4 14 C-4.33 11.69 -4.66 9.38 -5 7 C-4.01 7 -3.02 7 -2 7 C-1.34 4.69 -0.68 2.38 0 0 Z " fill="#021B26" transform="translate(340,799)"/>
<path d="M0 0 C0.66 0 1.32 0 2 0 C1.67 2.31 1.34 4.62 1 7 C0.401875 7.103125 -0.19625 7.20625 -0.8125 7.3125 C-3.28243264 8.08876455 -4.32251235 9.07088921 -6 11 C-6.66 10.67 -7.32 10.34 -8 10 C-7.59007812 9.52949219 -7.18015625 9.05898438 -6.7578125 8.57421875 C-6.21898437 7.95160156 -5.68015625 7.32898438 -5.125 6.6875 C-4.59132813 6.07261719 -4.05765625 5.45773437 -3.5078125 4.82421875 C-1.8359553 2.86501788 -1.8359553 2.86501788 0 0 Z " fill="#041624" transform="translate(684,815)"/>
<path d="M0 0 C0.99 0.66 1.98 1.32 3 2 C3 2.66 3 3.32 3 4 C4.65 4.33 6.3 4.66 8 5 C8 5.99 8 6.98 8 8 C8.66 8.33 9.32 8.66 10 9 C6.36804504 9 5.25286089 8.04546845 2.3125 6 C1.50425781 5.443125 0.69601562 4.88625 -0.13671875 4.3125 C-0.75160156 3.879375 -1.36648438 3.44625 -2 3 C-1.34 2.01 -0.68 1.02 0 0 Z " fill="#01415E" transform="translate(568,494)"/>
<path d="M0 0 C0.99 0 1.98 0 3 0 C2.67 2.97 2.34 5.94 2 9 C1.34 9 0.68 9 0 9 C-0.33 9.99 -0.66 10.98 -1 12 C-1.66 12 -2.32 12 -3 12 C-2.01 8.04 -1.02 4.08 0 0 Z " fill="#01516A" transform="translate(436,359)"/>
<path d="M0 0 C0.928125 0.33 1.85625 0.66 2.8125 1 C7.80904873 2.45989695 12.8433358 2.16784802 18 2 C17.67 2.66 17.34 3.32 17 4 C14.19921875 4.5546875 14.19921875 4.5546875 10.6875 4.875 C8.96080078 5.05675781 8.96080078 5.05675781 7.19921875 5.2421875 C4 5 4 5 1.58203125 3.0703125 C0 1 0 1 0 0 Z " fill="#03101C" transform="translate(449,826)"/>
<path d="M0 0 C1.21816406 0.03480469 1.21816406 0.03480469 2.4609375 0.0703125 C3.68683594 0.09738281 3.68683594 0.09738281 4.9375 0.125 C5.87722656 0.15980469 5.87722656 0.15980469 6.8359375 0.1953125 C3.82976481 3.20148519 1.01212152 2.79116566 -3.1640625 3.1953125 C-2.5040625 4.8453125 -1.8440625 6.4953125 -1.1640625 8.1953125 C-2.1540625 7.8653125 -3.1440625 7.5353125 -4.1640625 7.1953125 C-4.2890625 4.8203125 -4.2890625 4.8203125 -4.1640625 2.1953125 C-2.1640625 0.1953125 -2.1640625 0.1953125 0 0 Z " fill="#041423" transform="translate(410.1640625,788.8046875)"/>
<path d="M0 0 C5.28 0.66 10.56 1.32 16 2 C16 2.66 16 3.32 16 4 C10.21101581 4.20674944 5.57067277 3.59162079 0 2 C0 1.34 0 0.68 0 0 Z " fill="#014561" transform="translate(368,404)"/>
<path d="M0 0 C0.66 0.66 1.32 1.32 2 2 C0.4050992 3.19991599 -1.20126147 4.38461318 -2.8125 5.5625 C-3.70582031 6.22378906 -4.59914063 6.88507813 -5.51953125 7.56640625 C-6.33808594 8.03949219 -7.15664063 8.51257813 -8 9 C-8.99 8.67 -9.98 8.34 -11 8 C-7.37 5.36 -3.74 2.72 0 0 Z " fill="#013B57" transform="translate(471,319)"/>
<path d="M0 0 C0.33 0 0.66 0 1 0 C1.33 4.95 1.66 9.9 2 15 C1.01 14.67 0.02 14.34 -1 14 C-0.979375 13.071875 -0.95875 12.14375 -0.9375 11.1875 C-0.84230396 7.97713989 -0.84230396 7.97713989 -2 5 C-1.0625 2.3125 -1.0625 2.3125 0 0 Z " fill="#003B57" transform="translate(519,217)"/>
<path d="M0 0 C2 1 2 1 3.0703125 3.65234375 C3.41835938 4.73644531 3.76640625 5.82054687 4.125 6.9375 C4.47820312 8.01902344 4.83140625 9.10054687 5.1953125 10.21484375 C6 13 6 13 6 15 C4.0625 14.375 4.0625 14.375 2 13 C1.3125 10.3125 1.3125 10.3125 1 7 C0.814375 5.72125 0.62875 4.4425 0.4375 3.125 C0.293125 2.09375 0.14875 1.0625 0 0 Z " fill="#031825" transform="translate(316,789)"/>
<path d="M0 0 C3.82053924 1.27351308 4.23021375 2.62637525 6.1875 6.0625 C6.71730469 6.98160156 7.24710937 7.90070313 7.79296875 8.84765625 C8.19128906 9.55792969 8.58960938 10.26820313 9 11 C7.68 10.67 6.36 10.34 5 10 C5 9.34 5 8.68 5 8 C4.34 7.67 3.68 7.34 3 7 C0 2.5 0 2.5 0 0 Z " fill="#024863" transform="translate(410,429)"/>
<path d="M0 0 C0.33 0.99 0.66 1.98 1 3 C-0.78881736 4.00508801 -2.58114696 5.00392736 -4.375 6 C-5.37273437 6.556875 -6.37046875 7.11375 -7.3984375 7.6875 C-10 9 -10 9 -12 9 C-12 8.34 -12 7.68 -12 7 C-10.35 6.67 -8.7 6.34 -7 6 C-6.67 5.01 -6.34 4.02 -6 3 C-4.0625 2.4375 -4.0625 2.4375 -2 2 C-1.34 1.34 -0.68 0.68 0 0 Z " fill="#014E6A" transform="translate(420,405)"/>
<path d="M0 0 C0.66 0.66 1.32 1.32 2 2 C1.38125 2.598125 0.7625 3.19625 0.125 3.8125 C-2.13676954 6.00811144 -2.13676954 6.00811144 -4 9 C-4.66 7.02 -5.32 5.04 -6 3 C-4.02 2.01 -2.04 1.02 0 0 Z " fill="#012F44" transform="translate(503,689)"/>
<path d="M0 0 C1.9375 0.375 1.9375 0.375 4 1 C4.33 1.66 4.66 2.32 5 3 C5.66 3.28875 6.32 3.5775 7 3.875 C9 5 9 5 9.75 7.125 C9.87375 8.053125 9.87375 8.053125 10 9 C7 9 7 9 5.17578125 7.28515625 C4.56089844 6.55167969 3.94601562 5.81820313 3.3125 5.0625 C2.68988281 4.33160156 2.06726563 3.60070312 1.42578125 2.84765625 C0 1 0 1 0 0 Z " fill="#003956" transform="translate(532,460)"/>
<path d="M0 0 C4.29 0 8.58 0 13 0 C11.515 1.98 11.515 1.98 10 4 C10 3.34 10 2.68 10 2 C7.03 2 4.06 2 1 2 C0.67 1.34 0.34 0.68 0 0 Z " fill="#051323" transform="translate(572,828)"/>
<path d="M0 0 C6.27 0 12.54 0 19 0 C19.33 0.66 19.66 1.32 20 2 C19.34 2.66 18.68 3.32 18 4 C17.34 3.34 16.68 2.68 16 2 C13.26565038 1.6936141 10.61720179 1.4886664 7.875 1.375 C7.12089844 1.33632813 6.36679687 1.29765625 5.58984375 1.2578125 C3.72696816 1.16348969 1.86351745 1.08065338 0 1 C0 0.67 0 0.34 0 0 Z " fill="#023044" transform="translate(454,696)"/>
<path d="M0 0 C0.99 0.33 1.98 0.66 3 1 C1.54744301 4.82946843 -0.42895561 6.12050295 -4 8 C-3.50168276 4.31245243 -2.89932357 2.39509338 0 0 Z " fill="#01415E" transform="translate(489,496)"/>
<path d="M0 0 C3.59905908 0.55550695 4.99909799 1.74887248 7.25 4.5625 C8.03117187 5.52349609 8.03117187 5.52349609 8.828125 6.50390625 C9.21484375 6.99761719 9.6015625 7.49132812 10 8 C9.34 8.66 8.68 9.32 8 10 C6.85157077 8.71064081 5.70633773 7.41843421 4.5625 6.125 C3.92441406 5.40570313 3.28632813 4.68640625 2.62890625 3.9453125 C1 2 1 2 0 0 Z " fill="#003C59" transform="translate(464,386)"/>
<path d="M0 0 C0 3 0 3 -1.3125 4.38671875 C-2.875 5.59114583 -4.4375 6.79557292 -6 8 C-6.99 7.01 -7.98 6.02 -9 5 C-6.03 3.35 -3.06 1.7 0 0 Z " fill="#01415C" transform="translate(615,272)"/>
<path d="M0 0 C4.55015893 1.51671964 6.50057264 5.16891053 9 9 C8.34 9.66 7.68 10.32 7 11 C5.83051998 9.35616456 4.6644855 7.70987731 3.5 6.0625 C2.8503125 5.14597656 2.200625 4.22945313 1.53125 3.28515625 C0 1 0 1 0 0 Z " fill="#024D69" transform="translate(515,259)"/>
<path d="M0 0 C2.94721162 2.74395564 5.19168608 5.38337216 7 9 C6.67 9.66 6.34 10.32 6 11 C3.66475218 8.74259377 1.81294927 6.7194239 0 4 C0 2.68 0 1.36 0 0 Z " fill="#00304D" transform="translate(631,183)"/>
<path d="M0 0 C0.66 0.33 1.32 0.66 2 1 C-0.64 3.97 -3.28 6.94 -6 10 C-6.66 9.67 -7.32 9.34 -8 9 C-8 8.34 -8 7.68 -8 7 C-6.25 5.2734375 -6.25 5.2734375 -4 3.375 C-3.2575 2.74335938 -2.515 2.11171875 -1.75 1.4609375 C-1.1725 0.97882813 -0.595 0.49671875 0 0 Z " fill="#024965" transform="translate(437,390)"/>
<path d="M0 0 C0.99 0.33 1.98 0.66 3 1 C-1.455 4.465 -1.455 4.465 -6 8 C-6.66 7.34 -7.32 6.68 -8 6 C-6.7391988 4.96680187 -5.46596742 3.94875621 -4.1875 2.9375 C-3.47980469 2.36902344 -2.77210938 1.80054688 -2.04296875 1.21484375 C-1.36878906 0.81394531 -0.69460938 0.41304688 0 0 Z " fill="#01425E" transform="translate(527,280)"/>
<path d="M0 0 C1.40416706 2.62111184 2.6169847 5.03163146 3 8 C2.01 9.485 2.01 9.485 1 11 C0.01 8.03 -0.98 5.06 -2 2 C-1.34 1.34 -0.68 0.68 0 0 Z " fill="#023C58" transform="translate(323,360)"/>
<path d="M0 0 C0.66 0.66 1.32 1.32 2 2 C-2.455 4.97 -2.455 4.97 -7 8 C-7 7.01 -7 6.02 -7 5 C-5.46875 3.61328125 -5.46875 3.61328125 -3.5 2.3125 C-2.8503125 1.87550781 -2.200625 1.43851562 -1.53125 0.98828125 C-1.0259375 0.66214844 -0.520625 0.33601563 0 0 Z " fill="#013E59" transform="translate(484,310)"/>
<path d="M0 0 C0.99 0 1.98 0 3 0 C3 0.66 3 1.32 3 2 C3.639375 2.268125 4.27875 2.53625 4.9375 2.8125 C7 4 7 4 8 7 C8.66 7.33 9.32 7.66 10 8 C9.01 8.33 8.02 8.66 7 9 C5.83037314 7.69013727 4.66437056 6.3770374 3.5 5.0625 C2.8503125 4.33160156 2.200625 3.60070312 1.53125 2.84765625 C0 1 0 1 0 0 Z " fill="#013856" transform="translate(477,400)"/>
<path d="M0 0 C1.89551022 -0.05441656 3.7914792 -0.09298035 5.6875 -0.125 C6.74324219 -0.14820312 7.79898438 -0.17140625 8.88671875 -0.1953125 C12.02251859 0.00141271 14.17645373 0.66942346 17 2 C17 2.33 17 2.66 17 3 C15.10388566 2.85786703 13.20811606 2.71113093 11.3125 2.5625 C10.25675781 2.48128906 9.20101562 2.40007812 8.11328125 2.31640625 C5.34913703 2.03548319 2.71054259 1.59843148 0 1 C0 0.67 0 0.34 0 0 Z " fill="#043A69" transform="translate(751,113)"/>
<path d="M0 0 C0.66 0.33 1.32 0.66 2 1 C2 1.99 2 2.98 2 4 C1.2575 4.268125 0.515 4.53625 -0.25 4.8125 C-2.86636554 5.94229421 -4.80187111 7.20893202 -7 9 C-5.44499019 5.18315774 -2.96404505 2.80804268 0 0 Z " fill="#041624" transform="translate(616,807)"/>
<path d="M0 0 C2.3828125 -0.29296875 2.3828125 -0.29296875 5.125 -0.1875 C6.03507813 -0.16042969 6.94515625 -0.13335938 7.8828125 -0.10546875 C8.58148437 -0.07066406 9.28015625 -0.03585937 10 0 C5.96707255 2.2344598 2.55032566 2.54496743 -2 3 C-1.34 2.01 -0.68 1.02 0 0 Z " fill="#051527" transform="translate(711,791)"/>
<path d="M0 0 C0.99773437 0.02320313 1.99546875 0.04640625 3.0234375 0.0703125 C4.52777344 0.09738281 4.52777344 0.09738281 6.0625 0.125 C6.83335937 0.14820313 7.60421875 0.17140625 8.3984375 0.1953125 C8.7284375 1.1853125 9.0584375 2.1753125 9.3984375 3.1953125 C2.4684375 2.7003125 2.4684375 2.7003125 -4.6015625 2.1953125 C-2.6015625 0.1953125 -2.6015625 0.1953125 0 0 Z " fill="#002947" transform="translate(478.6015625,616.8046875)"/>
<path d="M0 0 C0.33 1.32 0.66 2.64 1 4 C0.01 4 -0.98 4 -2 4 C-1.34 2.68 -0.68 1.36 0 0 Z M-3 5 C-2.67 6.32 -2.34 7.64 -2 9 C-3.32 9.99 -4.64 10.98 -6 12 C-4.125 7.25 -4.125 7.25 -3 5 Z " fill="#01284F" transform="translate(859,811)"/>
<path d="M0 0 C1.25955231 3.77865693 0.48087189 5.03411786 -0.9375 8.6875 C-1.31777344 9.68136719 -1.69804687 10.67523437 -2.08984375 11.69921875 C-2.39019531 12.45847656 -2.69054687 13.21773437 -3 14 C-3.33 14 -3.66 14 -4 14 C-4.68041782 8.72676192 -2.24786337 4.60611289 0 0 Z " fill="#03111E" transform="translate(348,775)"/>
<path d="M0 0 C2.475 0.99 2.475 0.99 5 2 C3.02 4.97 3.02 4.97 1 8 C-0.42944945 5.64561267 -1.08661261 4.51967567 -0.625 1.75 C-0.41875 1.1725 -0.2125 0.595 0 0 Z " fill="#02384F" transform="translate(517,667)"/>
<path d="M0 0 C3.465 1.98 3.465 1.98 7 4 C6.67 4.66 6.34 5.32 6 6 C3.625 5.75 3.625 5.75 1 5 C-0.3125 2.9375 -0.3125 2.9375 -1 1 C-0.67 0.67 -0.34 0.34 0 0 Z " fill="#01506A" transform="translate(542,269)"/>
<path d="M0 0 C0.66 0 1.32 0 2 0 C2.38897161 1.62171239 2.76078298 3.24754925 3.125 4.875 C3.33382813 5.77992188 3.54265625 6.68484375 3.7578125 7.6171875 C3.83773438 8.40351563 3.91765625 9.18984375 4 10 C3.34 10.66 2.68 11.32 2 12 C0.86235649 7.73383684 0 4.43513689 0 0 Z " fill="#00455F" transform="translate(506,232)"/>
<path d="M0 0 C3.00198845 3.00198845 3.95992537 4.95805953 4.125 9.25 C4.08375 10.1575 4.0425 11.065 4 12 C1.49484216 9.49484216 0.94900914 7.38931835 0 4 C0 2.68 0 1.36 0 0 Z " fill="#041522" transform="translate(323,770)"/>
<path d="M0 0 C0.66 1.32 1.32 2.64 2 4 C1.67 4.66 1.34 5.32 1 6 C1.66 6 2.32 6 3 6 C2.625 7.9375 2.625 7.9375 2 10 C1.01 10.495 1.01 10.495 0 11 C0 7.37 0 3.74 0 0 Z " fill="#032A44" transform="translate(642,673)"/>
<path d="M0 0 C4.39158329 1.4638611 4.87947433 3.97831338 7 8 C5.68 7.67 4.36 7.34 3 7 C3 6.01 3 5.02 3 4 C2.34 4 1.68 4 1 4 C0.67 2.68 0.34 1.36 0 0 Z " fill="#014763" transform="translate(404,420)"/>
<path d="M0 0 C0.99 0.33 1.98 0.66 3 1 C3 3.64 3 6.28 3 9 C2.01 9.495 2.01 9.495 1 10 C0.67 6.7 0.34 3.4 0 0 Z " fill="#00415D" transform="translate(438,342)"/>
<path d="M0 0 C-2.93720508 1.52299523 -5.9168649 2.80100302 -9 4 C-9 3.01 -9 2.02 -9 1 C-5.57367167 -0.61798838 -3.61944899 -1.34053666 0 0 Z " fill="#014D67" transform="translate(511,474)"/>
<path d="M0 0 C2.31 1.98 4.62 3.96 7 6 C6.01 6.33 5.02 6.66 4 7 C2.35 5.02 0.7 3.04 -1 1 C-0.67 0.67 -0.34 0.34 0 0 Z " fill="#013652" transform="translate(511,435)"/>
<path d="M0 0 C3.625 0.375 3.625 0.375 7 1 C7 1.99 7 2.98 7 4 C2.545 3.01 2.545 3.01 -2 2 C-1.34 1.34 -0.68 0.68 0 0 Z " fill="#004763" transform="translate(395,289)"/>
<path d="M0 0 C3.99996286 1.33332095 4.83782337 3.4957827 7 7 C6.01 7 5.02 7 4 7 C0 2.65714286 0 2.65714286 0 0 Z " fill="#014C68" transform="translate(529,256)"/>
<path d="M0 0 C0 1.65 0 3.3 0 5 C-0.99 5.33 -1.98 5.66 -3 6 C-3.99 5.34 -4.98 4.68 -6 4 C-1.125 0 -1.125 0 0 0 Z " fill="#04121F" transform="translate(474,823)"/>
<path d="M0 0 C2.96175123 0.61277612 4.38058783 1.25372522 7 3 C7 3.99 7 4.98 7 6 C3.63279613 4.60667426 2.0140476 3.0210714 0 0 Z " fill="#003655" transform="translate(520,447)"/>
<path d="M0 0 C2.96175123 0.61277612 4.38058783 1.25372522 7 3 C3.98968256 3.93423645 3.13349732 4.04449911 0 3 C0 2.01 0 1.02 0 0 Z " fill="#00D0D1" transform="translate(339,731)"/>
<path d="M0 0 C0.99 0.33 1.98 0.66 3 1 C2.67 3.97 2.34 6.94 2 10 C1.67 10 1.34 10 1 10 C0.67 6.7 0.34 3.4 0 0 Z " fill="#01384D" transform="translate(640,684)"/>
<path d="M0 0 C0.66 0 1.32 0 2 0 C3.38938077 1.96147874 4.7260411 3.96166576 6 6 C3.11424181 5.60196439 2.17810487 5.20990931 0.25 2.9375 C-0.1625 2.298125 -0.575 1.65875 -1 1 C-0.67 0.67 -0.34 0.34 0 0 Z " fill="#013A57" transform="translate(458,377)"/>
<path d="M0 0 C1.65 0.33 3.3 0.66 5 1 C5.33 2.32 5.66 3.64 6 5 C3.69 4.01 1.38 3.02 -1 2 C-0.67 1.34 -0.34 0.68 0 0 Z " fill="#004361" transform="translate(404,292)"/>
<path d="M0 0 C2.2477975 2.05233685 3.0022242 3.00667261 4 6 C2.68 6.33 1.36 6.66 0 7 C0 4.69 0 2.38 0 0 Z " fill="#014863" transform="translate(524,246)"/>
</svg>
